<svg xmlns="http://www.w3.org/2000/svg" xmlns:xlink="http://www.w3.org/1999/xlink" width="1080" zoomAndPan="magnify" viewBox="0 0 810 809.999993" height="1080" preserveAspectRatio="xMidYMid meet" version="1.0"><defs><clipPath id="386a761bb8"><path d="M 359 239.269531 L 385 239.269531 L 385 570.199219 L 359 570.199219 Z M 359 239.269531 " clip-rule="nonzero"/></clipPath><clipPath id="6da52cc0df"><path d="M 433.128906 461.304688 L 579 461.304688 L 579 570.199219 L 433.128906 570.199219 Z M 433.128906 461.304688 " clip-rule="nonzero"/></clipPath><clipPath id="9a22c4995b"><path d="M 411.636719 386 L 601.988281 386 L 601.988281 481 L 411.636719 481 Z M 411.636719 386 " clip-rule="nonzero"/></clipPath><clipPath id="dee57af31f"><path d="M 480.734375 496 L 531.929688 496 L 531.929688 570.199219 L 480.734375 570.199219 Z M 480.734375 496 " clip-rule="nonzero"/></clipPath><clipPath id="31144a5f69"><path d="M 538 313 L 728.566406 313 L 728.566406 409 L 538 409 Z M 538 313 " clip-rule="nonzero"/></clipPath><clipPath id="d65a351219"><path d="M 411.636719 239.453125 L 601.988281 239.453125 L 601.988281 333.761719 L 411.636719 333.761719 Z M 411.636719 239.453125 " clip-rule="nonzero"/></clipPath></defs><path fill="#132644" d="M 93.496094 453.171875 C 86.640625 453.171875 81.082031 447.617188 81.082031 440.753906 L 81.082031 367.910156 C 81.082031 361.058594 86.640625 355.496094 93.496094 355.496094 C 100.351562 355.496094 105.914062 361.058594 105.914062 367.910156 L 105.914062 440.753906 C 105.914062 447.617188 100.351562 453.171875 93.496094 453.171875 " fill-opacity="1" fill-rule="nonzero"/><path fill="#132644" d="M 133.230469 482.96875 C 126.375 482.96875 120.8125 477.414062 120.8125 470.554688 L 120.8125 338.113281 C 120.8125 331.257812 126.375 325.695312 133.230469 325.695312 C 140.085938 325.695312 145.644531 331.257812 145.644531 338.113281 L 145.644531 470.554688 C 145.644531 477.414062 140.085938 482.96875 133.230469 482.96875 " fill-opacity="1" fill-rule="nonzero"/><path fill="#132644" d="M 172.960938 453.171875 C 166.105469 453.171875 160.546875 447.617188 160.546875 440.753906 L 160.546875 367.910156 C 160.546875 361.058594 166.105469 355.496094 172.960938 355.496094 C 179.816406 355.496094 185.378906 361.058594 185.378906 367.910156 L 185.378906 440.753906 C 185.378906 447.617188 179.816406 453.171875 172.960938 453.171875 " fill-opacity="1" fill-rule="nonzero"/><path fill="#132644" d="M 212.695312 468.070312 C 205.839844 468.070312 200.277344 462.515625 200.277344 455.65625 L 200.277344 353.011719 C 200.277344 346.15625 205.839844 340.597656 212.695312 340.597656 C 219.550781 340.597656 225.109375 346.15625 225.109375 353.011719 L 225.109375 455.65625 C 225.109375 462.515625 219.550781 468.070312 212.695312 468.070312 " fill-opacity="1" fill-rule="nonzero"/><path fill="#132644" d="M 252.425781 482.96875 C 245.570312 482.96875 240.011719 477.414062 240.011719 470.554688 L 240.011719 338.113281 C 240.011719 331.257812 245.570312 325.695312 252.425781 325.695312 C 259.28125 325.695312 264.84375 331.257812 264.84375 338.113281 L 264.84375 470.554688 C 264.84375 477.414062 259.28125 482.96875 252.425781 482.96875 " fill-opacity="1" fill-rule="nonzero"/><path fill="#132644" d="M 292.160156 519.390625 C 285.304688 519.390625 279.742188 513.835938 279.742188 506.976562 L 279.742188 301.691406 C 279.742188 294.835938 285.304688 289.273438 292.160156 289.273438 C 299.015625 289.273438 304.574219 294.835938 304.574219 301.691406 L 304.574219 506.976562 C 304.574219 513.835938 299.015625 519.390625 292.160156 519.390625 " fill-opacity="1" fill-rule="nonzero"/><path fill="#132644" d="M 331.890625 511.113281 C 325.035156 511.113281 319.476562 505.558594 319.476562 498.699219 L 319.476562 309.96875 C 319.476562 303.113281 325.035156 297.550781 331.890625 297.550781 C 338.746094 297.550781 344.308594 303.113281 344.308594 309.96875 L 344.308594 498.699219 C 344.308594 505.558594 338.746094 511.113281 331.890625 511.113281 " fill-opacity="1" fill-rule="nonzero"/><g clip-path="url(#386a761bb8)"><path fill="#132644" d="M 371.625 570.710938 C 364.769531 570.710938 359.207031 565.15625 359.207031 558.296875 L 359.207031 250.371094 C 359.207031 243.515625 364.769531 237.953125 371.625 237.953125 C 378.484375 237.953125 384.039062 243.515625 384.039062 250.371094 L 384.039062 558.296875 C 384.039062 565.15625 378.484375 570.710938 371.625 570.710938 " fill-opacity="1" fill-rule="nonzero"/></g><g clip-path="url(#6da52cc0df)"><path fill="#4d55f5" d="M 438.792969 570.519531 L 573.730469 570.519531 C 576.585938 570.519531 578.90625 568.203125 578.90625 565.347656 L 578.90625 466.925781 C 578.90625 464.066406 576.585938 461.753906 573.730469 461.753906 C 570.875 461.753906 568.554688 464.066406 568.554688 466.925781 L 568.554688 560.171875 L 443.96875 560.171875 L 443.96875 466.925781 C 443.96875 464.066406 441.652344 461.75 438.792969 461.75 C 435.9375 461.75 433.621094 464.066406 433.621094 466.925781 L 433.621094 565.347656 C 433.621094 568.203125 435.9375 570.519531 438.792969 570.519531 " fill-opacity="1" fill-rule="evenodd"/></g><g clip-path="url(#9a22c4995b)"><path fill="#4d55f5" d="M 425.3125 480.285156 C 428.453125 480.285156 431.539062 479.210938 434.011719 477.269531 L 506.261719 420.429688 L 578.511719 477.269531 C 580.984375 479.210938 584.070312 480.285156 587.210938 480.285156 C 591.558594 480.285156 595.589844 478.324219 598.277344 474.910156 C 600.597656 471.957031 601.632812 468.273438 601.1875 464.542969 C 600.742188 460.808594 598.871094 457.472656 595.914062 455.144531 L 509.460938 387.132812 C 507.585938 385.65625 504.9375 385.65625 503.0625 387.132812 L 416.609375 455.148438 C 413.652344 457.472656 411.78125 460.808594 411.335938 464.542969 C 410.890625 468.269531 411.925781 471.957031 414.246094 474.910156 C 416.933594 478.324219 420.964844 480.285156 425.3125 480.285156 Z M 506.261719 408.671875 C 505.132812 408.671875 504.003906 409.042969 503.0625 409.78125 L 427.609375 469.136719 C 426.957031 469.652344 426.140625 469.933594 425.3125 469.933594 C 424.140625 469.933594 423.101562 469.429688 422.378906 468.511719 C 421.753906 467.71875 421.488281 466.769531 421.609375 465.765625 C 421.726562 464.761719 422.210938 463.902344 423.003906 463.277344 L 506.261719 397.78125 L 589.519531 463.277344 C 590.3125 463.902344 590.796875 464.761719 590.914062 465.765625 C 591.035156 466.769531 590.769531 467.71875 590.144531 468.511719 C 589.421875 469.433594 588.378906 469.933594 587.210938 469.933594 C 586.382812 469.933594 585.566406 469.652344 584.914062 469.136719 L 509.460938 409.78125 C 508.519531 409.042969 507.390625 408.671875 506.261719 408.671875 " fill-opacity="1" fill-rule="evenodd"/></g><g clip-path="url(#dee57af31f)"><path fill="#4d55f5" d="M 486.082031 570.558594 L 526.441406 570.558594 C 529.296875 570.558594 531.613281 568.242188 531.613281 565.382812 L 531.613281 501.195312 C 531.613281 498.335938 529.296875 496.019531 526.441406 496.019531 L 486.082031 496.019531 C 483.222656 496.019531 480.910156 498.335938 480.910156 501.195312 L 480.910156 565.382812 C 480.910156 568.242188 483.222656 570.558594 486.082031 570.558594 Z M 521.265625 560.210938 L 491.253906 560.210938 L 491.253906 506.367188 L 521.265625 506.367188 L 521.265625 560.210938 " fill-opacity="1" fill-rule="evenodd"/></g><path fill="#4d55f5" d="M 506.261719 474.664062 C 516.125 474.664062 524.152344 466.640625 524.152344 456.777344 C 524.152344 446.910156 516.125 438.886719 506.261719 438.886719 C 496.398438 438.886719 488.375 446.910156 488.375 456.777344 C 488.375 466.640625 496.398438 474.664062 506.261719 474.664062 Z M 506.261719 449.234375 C 510.417969 449.234375 513.800781 452.617188 513.800781 456.777344 C 513.800781 460.933594 510.417969 464.316406 506.261719 464.316406 C 502.105469 464.316406 498.722656 460.933594 498.722656 456.777344 C 498.722656 452.617188 502.105469 449.234375 506.261719 449.234375 " fill-opacity="1" fill-rule="evenodd"/><path fill="#4d55f5" d="M 573.730469 498.472656 L 701.074219 498.472656 C 703.933594 498.472656 706.246094 496.15625 706.246094 493.296875 L 706.246094 394.875 C 706.246094 392.019531 703.933594 389.703125 701.074219 389.703125 C 698.214844 389.703125 695.902344 392.019531 695.902344 394.875 L 695.902344 488.125 L 573.730469 488.125 C 570.875 488.125 568.554688 490.441406 568.554688 493.296875 C 568.554688 496.15625 570.875 498.472656 573.730469 498.472656 " fill-opacity="1" fill-rule="evenodd"/><path fill="#4d55f5" d="M 566.136719 443.476562 C 568.992188 443.476562 571.308594 441.160156 571.308594 438.304688 L 571.308594 394.871094 C 571.308594 392.015625 568.992188 389.703125 566.136719 389.703125 C 563.277344 389.703125 560.964844 392.015625 560.964844 394.871094 L 560.964844 438.300781 C 560.964844 441.160156 563.277344 443.476562 566.136719 443.476562 " fill-opacity="1" fill-rule="evenodd"/><g clip-path="url(#31144a5f69)"><path fill="#4d55f5" d="M 552.65625 408.234375 C 555.792969 408.234375 558.882812 407.164062 561.351562 405.21875 L 633.601562 348.382812 L 705.855469 405.222656 C 708.324219 407.164062 711.410156 408.234375 714.550781 408.234375 C 718.898438 408.234375 722.929688 406.277344 725.617188 402.863281 C 727.941406 399.90625 728.976562 396.222656 728.53125 392.492188 C 728.085938 388.761719 726.210938 385.425781 723.257812 383.097656 L 636.804688 315.085938 C 634.925781 313.609375 632.28125 313.609375 630.402344 315.085938 L 543.949219 383.097656 C 540.996094 385.425781 539.121094 388.761719 538.675781 392.492188 C 538.230469 396.222656 539.265625 399.90625 541.589844 402.863281 C 544.273438 406.277344 548.308594 408.234375 552.65625 408.234375 Z M 633.601562 336.625 C 632.472656 336.625 631.34375 336.992188 630.402344 337.734375 L 554.953125 397.089844 C 554.300781 397.601562 553.484375 397.886719 552.65625 397.886719 C 551.484375 397.886719 550.445312 397.382812 549.722656 396.464844 C 549.097656 395.667969 548.832031 394.722656 548.949219 393.71875 C 549.070312 392.714844 549.554688 391.855469 550.347656 391.230469 L 633.601562 325.734375 L 716.859375 391.230469 C 717.652344 391.855469 718.136719 392.714844 718.257812 393.71875 C 718.375 394.722656 718.109375 395.667969 717.484375 396.464844 C 716.761719 397.382812 715.71875 397.886719 714.550781 397.886719 C 713.722656 397.886719 712.90625 397.601562 712.25 397.089844 L 636.804688 337.734375 C 635.863281 336.992188 634.734375 336.625 633.601562 336.625 " fill-opacity="1" fill-rule="evenodd"/></g><path fill="#4d55f5" d="M 613.421875 498.511719 L 653.785156 498.511719 C 656.640625 498.511719 658.957031 496.195312 658.957031 493.335938 L 658.957031 415.742188 C 658.957031 412.882812 656.640625 410.566406 653.785156 410.566406 L 613.421875 410.566406 C 610.566406 410.566406 608.25 412.882812 608.25 415.742188 L 608.25 493.335938 C 608.25 496.191406 610.566406 498.511719 613.421875 498.511719 Z M 648.609375 488.164062 L 618.597656 488.164062 L 618.597656 420.914062 L 648.609375 420.914062 L 648.609375 488.164062 " fill-opacity="1" fill-rule="evenodd"/><path fill="#4d55f5" d="M 633.601562 402.617188 C 643.464844 402.617188 651.488281 394.59375 651.488281 384.726562 C 651.488281 374.863281 643.464844 366.839844 633.601562 366.839844 C 623.742188 366.839844 615.714844 374.863281 615.714844 384.726562 C 615.714844 394.59375 623.742188 402.617188 633.601562 402.617188 Z M 633.601562 377.1875 C 637.761719 377.1875 641.144531 380.570312 641.144531 384.726562 C 641.144531 388.882812 637.761719 392.269531 633.601562 392.269531 C 629.445312 392.269531 626.0625 388.882812 626.0625 384.726562 C 626.0625 380.570312 629.445312 377.1875 633.601562 377.1875 " fill-opacity="1" fill-rule="evenodd"/><path fill="#4d55f5" d="M 573.730469 371.425781 C 576.589844 371.425781 578.90625 369.109375 578.90625 366.253906 L 578.90625 320.351562 C 578.90625 317.496094 576.589844 315.179688 573.730469 315.179688 C 570.875 315.179688 568.554688 317.496094 568.554688 320.351562 L 568.554688 366.253906 C 568.554688 369.109375 570.875 371.425781 573.730469 371.425781 " fill-opacity="1" fill-rule="evenodd"/><path fill="#4d55f5" d="M 438.792969 423.949219 L 471.210938 423.949219 C 474.066406 423.949219 476.382812 421.632812 476.382812 418.777344 C 476.382812 415.917969 474.066406 413.601562 471.210938 413.601562 L 443.96875 413.601562 L 443.96875 320.351562 C 443.96875 317.492188 441.652344 315.175781 438.792969 315.175781 C 435.9375 315.175781 433.621094 317.492188 433.621094 320.351562 L 433.621094 418.777344 C 433.621094 421.632812 435.9375 423.949219 438.792969 423.949219 " fill-opacity="1" fill-rule="evenodd"/><g clip-path="url(#d65a351219)"><path fill="#4d55f5" d="M 425.3125 333.707031 C 428.453125 333.707031 431.539062 332.640625 434.011719 330.699219 L 506.261719 273.855469 L 578.511719 330.699219 C 580.984375 332.640625 584.070312 333.707031 587.210938 333.707031 C 591.558594 333.707031 595.589844 331.75 598.277344 328.335938 C 600.597656 325.382812 601.632812 321.699219 601.1875 317.964844 C 600.742188 314.238281 598.871094 310.898438 595.914062 308.574219 L 509.460938 240.5625 C 507.585938 239.082031 504.9375 239.082031 503.0625 240.5625 L 416.609375 308.574219 C 413.652344 310.898438 411.78125 314.238281 411.335938 317.964844 C 410.890625 321.699219 411.925781 325.382812 414.246094 328.335938 C 416.933594 331.75 420.964844 333.707031 425.3125 333.707031 Z M 506.261719 262.101562 C 505.132812 262.101562 504.003906 262.46875 503.0625 263.207031 L 427.609375 322.5625 C 426.957031 323.078125 426.140625 323.363281 425.3125 323.363281 C 424.140625 323.363281 423.101562 322.855469 422.378906 321.941406 C 421.753906 321.144531 421.488281 320.199219 421.609375 319.195312 C 421.726562 318.191406 422.210938 317.332031 423.003906 316.707031 L 506.261719 251.210938 L 589.519531 316.707031 C 590.3125 317.332031 590.796875 318.191406 590.914062 319.195312 C 591.035156 320.199219 590.769531 321.144531 590.144531 321.941406 C 589.421875 322.855469 588.378906 323.363281 587.210938 323.363281 C 586.382812 323.363281 585.566406 323.078125 584.914062 322.5625 L 509.460938 263.207031 C 508.519531 262.472656 507.390625 262.101562 506.261719 262.101562 " fill-opacity="1" fill-rule="evenodd"/></g><path fill="#4d55f5" d="M 486.082031 412.25 C 488.941406 412.25 491.253906 409.933594 491.253906 407.078125 L 491.253906 346.390625 L 521.265625 346.390625 L 521.265625 407.074219 C 521.265625 409.929688 523.582031 412.25 526.441406 412.25 C 529.296875 412.25 531.613281 409.929688 531.613281 407.074219 L 531.613281 341.21875 C 531.613281 338.359375 529.296875 336.042969 526.441406 336.042969 L 486.082031 336.042969 C 483.222656 336.042969 480.910156 338.359375 480.910156 341.21875 L 480.910156 407.078125 C 480.910156 409.933594 483.222656 412.25 486.082031 412.25 " fill-opacity="1" fill-rule="evenodd"/><path fill="#4d55f5" d="M 506.261719 328.089844 C 516.125 328.089844 524.152344 320.066406 524.152344 310.203125 C 524.152344 300.339844 516.125 292.316406 506.261719 292.316406 C 496.398438 292.316406 488.375 300.339844 488.375 310.203125 C 488.375 320.066406 496.398438 328.089844 506.261719 328.089844 Z M 506.261719 302.660156 C 510.417969 302.660156 513.800781 306.042969 513.800781 310.203125 C 513.800781 314.363281 510.417969 317.746094 506.261719 317.746094 C 502.105469 317.746094 498.722656 314.363281 498.722656 310.203125 C 498.722656 306.042969 502.105469 302.660156 506.261719 302.660156 " fill-opacity="1" fill-rule="evenodd"/></svg>