<svg xmlns="http://www.w3.org/2000/svg" xmlns:xlink="http://www.w3.org/1999/xlink" width="1080" zoomAndPan="magnify" viewBox="0 0 810 809.999993" height="1080" preserveAspectRatio="xMidYMid meet" version="1.0"><defs><clipPath id="ebfd0b81ae"><path d="M 488 190.621094 L 571 190.621094 L 571 240 L 488 240 Z M 488 190.621094 " clip-rule="nonzero"/></clipPath><clipPath id="155f9fe00b"><path d="M 85 580 L 659 580 L 659 619.621094 L 85 619.621094 Z M 85 580 " clip-rule="nonzero"/></clipPath><clipPath id="8eb3001d72"><path d="M 717 370 L 729 370 L 729 619.621094 L 717 619.621094 Z M 717 370 " clip-rule="nonzero"/></clipPath></defs><path fill="#f6f6f6" d="M 366.949219 611.757812 L 298.421875 611.757812 L 253.601562 580.222656 L 322.15625 580.222656 Z M 366.949219 611.757812 " fill-opacity="1" fill-rule="nonzero"/><path fill="#4d55f5" d="M 366.949219 612.273438 L 298.421875 612.273438 C 298.304688 612.273438 298.210938 612.25 298.117188 612.179688 L 253.320312 580.644531 C 253.132812 580.503906 253.0625 580.269531 253.132812 580.058594 C 253.203125 579.847656 253.390625 579.707031 253.625 579.707031 L 322.15625 579.707031 C 322.273438 579.707031 322.367188 579.730469 322.460938 579.800781 L 367.253906 611.335938 C 367.441406 611.476562 367.511719 611.710938 367.441406 611.921875 C 367.371094 612.109375 367.183594 612.273438 366.949219 612.273438 Z M 298.585938 611.242188 L 365.335938 611.242188 L 321.992188 580.738281 L 255.242188 580.738281 Z M 298.585938 611.242188 " fill-opacity="1" fill-rule="nonzero"/><path fill="#affb53" d="M 406.007812 618.859375 L 337.453125 618.859375 L 292.65625 587.324219 L 361.1875 587.324219 Z M 406.007812 618.859375 " fill-opacity="1" fill-rule="nonzero"/><path fill="#4d55f5" d="M 572.636719 284.101562 L 522.941406 284.101562 C 515.1875 284.101562 508.886719 277.800781 508.886719 270.042969 C 508.886719 269.765625 509.121094 269.53125 509.398438 269.53125 C 509.679688 269.53125 509.914062 269.765625 509.914062 270.042969 C 509.914062 277.238281 515.773438 283.070312 522.941406 283.070312 L 572.636719 283.070312 C 579.828125 283.070312 585.664062 277.214844 585.664062 270.042969 C 585.664062 269.765625 585.898438 269.53125 586.179688 269.53125 C 586.457031 269.53125 586.691406 269.765625 586.691406 270.042969 C 586.691406 277.800781 580.390625 284.101562 572.636719 284.101562 Z M 572.636719 284.101562 " fill-opacity="1" fill-rule="nonzero"/><path fill="#4d55f5" d="M 547.777344 316.011719 C 547.496094 316.011719 547.261719 315.777344 547.261719 315.496094 L 547.261719 288.71875 C 547.261719 288.4375 547.496094 288.203125 547.777344 288.203125 C 548.058594 288.203125 548.292969 288.4375 548.292969 288.71875 L 548.292969 315.496094 C 548.292969 315.777344 548.058594 316.011719 547.777344 316.011719 Z M 547.777344 316.011719 " fill-opacity="1" fill-rule="nonzero"/><path fill="#4d55f5" d="M 499.816406 330.632812 C 499.746094 330.632812 499.699219 330.632812 499.628906 330.609375 C 499.371094 330.515625 499.230469 330.210938 499.324219 329.953125 L 502.652344 321.027344 C 502.722656 320.839844 502.910156 320.699219 503.097656 320.699219 L 545.832031 318.144531 C 546.113281 318.121094 546.371094 318.355469 546.371094 318.636719 C 546.394531 318.917969 546.160156 319.175781 545.878906 319.175781 L 503.472656 321.707031 L 500.261719 330.328125 C 500.214844 330.492188 500.003906 330.632812 499.816406 330.632812 Z M 499.816406 330.632812 " fill-opacity="1" fill-rule="nonzero"/><path fill="#4d55f5" d="M 595.761719 330.632812 C 595.550781 330.632812 595.363281 330.515625 595.269531 330.304688 L 592.058594 321.683594 L 549.652344 319.152344 C 549.371094 319.128906 549.160156 318.894531 549.160156 318.613281 C 549.183594 318.332031 549.417969 318.121094 549.699219 318.121094 L 592.433594 320.675781 C 592.644531 320.699219 592.808594 320.816406 592.878906 321.003906 L 596.207031 329.929688 C 596.300781 330.1875 596.160156 330.492188 595.902344 330.585938 C 595.878906 330.609375 595.832031 330.632812 595.761719 330.632812 Z M 595.761719 330.632812 " fill-opacity="1" fill-rule="nonzero"/><path fill="#4d55f5" d="M 547.027344 259.5 C 546.746094 259.5 546.511719 259.265625 546.511719 258.988281 L 546.511719 225.15625 C 546.511719 220.609375 550.214844 216.90625 554.757812 216.90625 L 594.589844 216.90625 C 597.609375 216.90625 600.304688 218.476562 601.78125 221.125 C 603.257812 223.773438 603.210938 226.886719 601.617188 229.464844 C 601.476562 229.699219 601.148438 229.792969 600.914062 229.628906 C 600.679688 229.488281 600.585938 229.160156 600.75 228.925781 C 602.132812 226.675781 602.179688 223.9375 600.890625 221.640625 C 599.601562 219.320312 597.238281 217.960938 594.589844 217.960938 L 554.757812 217.960938 C 550.777344 217.960938 547.542969 221.195312 547.542969 225.179688 L 547.542969 259.011719 C 547.542969 259.265625 547.308594 259.5 547.027344 259.5 Z M 547.027344 259.5 " fill-opacity="1" fill-rule="nonzero"/><path fill="#132644" d="M 601.265625 243.617188 L 514.53125 243.617188 C 509.214844 243.617188 504.902344 247.929688 504.902344 253.246094 L 504.902344 263.414062 L 610.894531 263.414062 L 610.894531 253.246094 C 610.917969 247.929688 606.585938 243.617188 601.265625 243.617188 Z M 601.265625 243.617188 " fill-opacity="1" fill-rule="nonzero"/><path fill="#4d55f5" d="M 611.363281 267.234375 L 504.457031 267.234375 C 504.175781 267.234375 503.941406 267 503.941406 266.71875 C 503.941406 266.4375 504.175781 266.203125 504.457031 266.203125 L 611.363281 266.203125 C 611.644531 266.203125 611.878906 266.4375 611.878906 266.71875 C 611.878906 267.023438 611.644531 267.234375 611.363281 267.234375 Z M 611.363281 267.234375 " fill-opacity="1" fill-rule="nonzero"/><g clip-path="url(#ebfd0b81ae)"><path fill="#132644" d="M 570.949219 239.703125 L 496.375 239.703125 C 492.085938 239.703125 488.59375 236.214844 488.59375 231.925781 L 488.59375 198.398438 C 488.59375 194.109375 492.085938 190.621094 496.375 190.621094 L 557.125 190.621094 C 560.992188 190.621094 564.273438 193.453125 564.832031 197.296875 Z M 570.949219 239.703125 " fill-opacity="1" fill-rule="nonzero"/></g><path fill="#4d55f5" d="M 515.445312 267.234375 L 491.945312 267.234375 C 487.402344 267.234375 483.699219 263.53125 483.699219 258.988281 L 483.699219 225.15625 C 483.699219 220.609375 487.402344 216.90625 491.945312 216.90625 L 531.773438 216.90625 C 534.796875 216.90625 537.492188 218.476562 538.96875 221.125 C 540.445312 223.773438 540.398438 226.886719 538.804688 229.464844 C 538.664062 229.699219 538.335938 229.792969 538.101562 229.628906 C 537.867188 229.488281 537.773438 229.160156 537.9375 228.925781 C 539.320312 226.675781 539.367188 223.9375 538.078125 221.640625 C 536.789062 219.320312 534.421875 217.960938 531.773438 217.960938 L 491.945312 217.960938 C 487.960938 217.960938 484.730469 221.195312 484.730469 225.179688 L 484.730469 259.011719 C 484.730469 262.992188 487.960938 266.226562 491.945312 266.226562 L 515.445312 266.226562 C 515.726562 266.226562 515.960938 266.460938 515.960938 266.742188 C 515.960938 267.023438 515.726562 267.234375 515.445312 267.234375 Z M 515.445312 267.234375 " fill-opacity="1" fill-rule="nonzero"/><path fill="#f6f6f6" d="M 617.832031 217.421875 L 714.992188 217.421875 L 714.992188 286.75 L 646.8125 286.75 L 646.8125 231.222656 L 617.832031 231.222656 Z M 617.832031 217.421875 " fill-opacity="1" fill-rule="nonzero"/><path fill="#4d55f5" d="M 714.992188 287.265625 L 646.8125 287.265625 C 646.53125 287.265625 646.296875 287.03125 646.296875 286.75 L 646.296875 231.738281 L 617.808594 231.738281 C 617.527344 231.738281 617.292969 231.503906 617.292969 231.222656 L 617.292969 217.421875 C 617.292969 217.140625 617.527344 216.90625 617.808594 216.90625 L 714.992188 216.90625 C 715.273438 216.90625 715.507812 217.140625 715.507812 217.421875 L 715.507812 286.75 C 715.507812 287.03125 715.296875 287.265625 714.992188 287.265625 Z M 647.328125 286.234375 L 714.476562 286.234375 L 714.476562 217.9375 L 618.347656 217.9375 L 618.347656 230.707031 L 646.8125 230.707031 C 647.09375 230.707031 647.328125 230.941406 647.328125 231.222656 Z M 647.328125 286.234375 " fill-opacity="1" fill-rule="nonzero"/><path fill="#4d55f5" d="M 709.8125 231.738281 L 646.8125 231.738281 C 646.53125 231.738281 646.296875 231.503906 646.296875 231.222656 C 646.296875 230.941406 646.53125 230.707031 646.8125 230.707031 L 709.789062 230.707031 C 710.070312 230.707031 710.304688 230.941406 710.304688 231.222656 C 710.328125 231.503906 710.09375 231.738281 709.8125 231.738281 Z M 709.8125 231.738281 " fill-opacity="1" fill-rule="nonzero"/><path fill="#4d55f5" d="M 709.8125 259.5 L 646.8125 259.5 C 646.53125 259.5 646.296875 259.265625 646.296875 258.988281 C 646.296875 258.707031 646.53125 258.472656 646.8125 258.472656 L 709.789062 258.472656 C 710.070312 258.472656 710.304688 258.707031 710.304688 258.988281 C 710.328125 259.265625 710.09375 259.5 709.8125 259.5 Z M 709.8125 259.5 " fill-opacity="1" fill-rule="nonzero"/><path fill="#132644" d="M 681.5625 236.628906 C 681.925781 236.988281 682.207031 237.40625 682.402344 237.882812 C 682.597656 238.355469 682.695312 238.847656 682.695312 239.359375 C 682.695312 239.875 682.597656 240.367188 682.402344 240.839844 C 682.207031 241.3125 681.925781 241.730469 681.5625 242.09375 C 681.203125 242.457031 680.785156 242.734375 680.308594 242.933594 C 679.835938 243.128906 679.34375 243.226562 678.832031 243.226562 C 678.316406 243.226562 677.824219 243.128906 677.351562 242.933594 C 676.878906 242.734375 676.460938 242.457031 676.097656 242.09375 C 675.734375 241.730469 675.453125 241.3125 675.257812 240.839844 C 675.0625 240.367188 674.964844 239.875 674.964844 239.359375 C 674.964844 238.847656 675.0625 238.355469 675.257812 237.882812 C 675.453125 237.40625 675.734375 236.988281 676.097656 236.628906 C 676.460938 236.265625 676.878906 235.984375 677.351562 235.789062 C 677.824219 235.59375 678.316406 235.496094 678.832031 235.496094 C 679.34375 235.496094 679.835938 235.59375 680.308594 235.789062 C 680.78125 235.984375 681.203125 236.265625 681.5625 236.628906 Z M 681.5625 236.628906 " fill-opacity="1" fill-rule="nonzero"/><path fill="#132644" d="M 679.785156 263.960938 C 680.28125 264.078125 680.738281 264.289062 681.15625 264.585938 C 681.570312 264.886719 681.914062 265.253906 682.183594 265.691406 C 682.453125 266.128906 682.628906 266.597656 682.710938 267.105469 C 682.792969 267.609375 682.773438 268.113281 682.65625 268.613281 C 682.539062 269.109375 682.332031 269.566406 682.03125 269.984375 C 681.730469 270.398438 681.363281 270.742188 680.925781 271.011719 C 680.492188 271.28125 680.019531 271.457031 679.515625 271.539062 C 679.007812 271.621094 678.503906 271.605469 678.007812 271.484375 C 677.507812 271.367188 677.050781 271.160156 676.632812 270.859375 C 676.21875 270.558594 675.875 270.191406 675.605469 269.753906 C 675.335938 269.320312 675.160156 268.847656 675.078125 268.34375 C 674.996094 267.835938 675.015625 267.335938 675.132812 266.835938 C 675.25 266.335938 675.460938 265.878906 675.757812 265.464844 C 676.058594 265.046875 676.425781 264.703125 676.863281 264.433594 C 677.300781 264.164062 677.769531 263.988281 678.277344 263.90625 C 678.78125 263.824219 679.285156 263.84375 679.785156 263.960938 Z M 679.785156 263.960938 " fill-opacity="1" fill-rule="nonzero"/><path fill="#4d55f5" d="M 714.992188 330.632812 C 714.710938 330.632812 714.476562 330.398438 714.476562 330.117188 L 714.476562 292.863281 C 714.476562 292.582031 714.710938 292.347656 714.992188 292.347656 C 715.273438 292.347656 715.507812 292.582031 715.507812 292.863281 L 715.507812 330.117188 C 715.507812 330.398438 715.296875 330.632812 714.992188 330.632812 Z M 714.992188 330.632812 " fill-opacity="1" fill-rule="nonzero"/><path fill="#4d55f5" d="M 646.8125 330.632812 C 646.53125 330.632812 646.296875 330.398438 646.296875 330.117188 L 646.296875 292.863281 C 646.296875 292.582031 646.53125 292.347656 646.8125 292.347656 C 647.09375 292.347656 647.328125 292.582031 647.328125 292.863281 L 647.328125 330.117188 C 647.328125 330.398438 647.117188 330.632812 646.8125 330.632812 Z M 646.8125 330.632812 " fill-opacity="1" fill-rule="nonzero"/><path fill="#4d55f5" d="M 422.429688 363.292969 C 424.609375 364.441406 479.152344 363.292969 479.152344 363.292969 C 479.152344 363.292969 446.046875 277.191406 433.488281 254.746094 C 420.933594 232.324219 383.46875 239.046875 372.152344 260.695312 C 360.835938 282.34375 389.558594 289.890625 389.558594 289.890625 Z M 422.429688 363.292969 " fill-opacity="1" fill-rule="nonzero"/><path fill="#f6f6f6" d="M 548.574219 580.761719 C 542.808594 525.5625 536.039062 480.320312 528.707031 469.894531 L 469.664062 469.683594 L 425.898438 462.09375 C 425.898438 462.09375 418.355469 514.363281 417.019531 580.761719 Z M 548.574219 580.761719 " fill-opacity="1" fill-rule="nonzero"/><path fill="#4d55f5" d="M 548.574219 581.277344 L 417.042969 581.277344 C 416.902344 581.277344 416.761719 581.230469 416.667969 581.113281 C 416.574219 581.019531 416.527344 580.878906 416.527344 580.738281 C 417.839844 515.066406 425.335938 462.515625 425.40625 462 C 425.429688 461.859375 425.5 461.742188 425.617188 461.648438 C 425.734375 461.578125 425.875 461.53125 426.015625 461.554688 L 469.734375 469.144531 L 528.730469 469.355469 C 528.894531 469.355469 529.058594 469.449219 529.152344 469.566406 C 535.664062 478.824219 542.367188 516.214844 549.113281 580.691406 C 549.136719 580.832031 549.089844 580.972656 548.972656 581.089844 C 548.878906 581.207031 548.738281 581.277344 548.574219 581.277344 Z M 417.582031 580.246094 L 548.035156 580.246094 C 541.382812 516.800781 534.796875 479.851562 528.472656 470.410156 L 469.6875 470.199219 C 469.664062 470.199219 469.640625 470.199219 469.59375 470.199219 L 426.367188 462.703125 C 425.570312 468.324219 418.824219 518.394531 417.582031 580.246094 Z M 417.582031 580.246094 " fill-opacity="1" fill-rule="nonzero"/><path fill="#f6f6f6" d="M 388.203125 332.507812 C 388.203125 332.507812 368.378906 331.78125 363.648438 351.015625 C 356.523438 379.996094 353.644531 514.738281 353.410156 554.3125 C 353.386719 559.582031 349.121094 563.894531 343.828125 563.917969 C 332.042969 563.988281 313.53125 566.402344 314.09375 580.738281 L 388.320312 580.738281 C 395.558594 580.738281 401.414062 574.882812 401.414062 567.640625 L 401.414062 427.675781 Z M 388.203125 332.507812 " fill-opacity="1" fill-rule="nonzero"/><path fill="#4d55f5" d="M 388.320312 581.277344 L 314.09375 581.277344 C 313.8125 581.277344 313.578125 581.066406 313.578125 580.785156 C 313.4375 576.921875 314.609375 573.640625 317.117188 570.992188 C 322.996094 564.855469 334.875 563.496094 343.804688 563.425781 C 348.769531 563.402344 352.847656 559.300781 352.871094 554.335938 C 353.128906 511.832031 356.148438 379.273438 363.132812 350.921875 C 367.910156 331.5 388.015625 331.992188 388.226562 332.015625 C 388.480469 332.015625 388.691406 332.203125 388.714844 332.460938 L 401.90625 427.628906 C 401.90625 427.652344 401.90625 427.675781 401.90625 427.699219 L 401.90625 567.664062 C 401.929688 575.164062 395.816406 581.277344 388.320312 581.277344 Z M 314.609375 580.246094 L 388.320312 580.246094 C 395.253906 580.246094 400.898438 574.601562 400.898438 567.664062 L 400.898438 427.722656 L 387.757812 333.023438 C 384.875 333.070312 368.332031 334.101562 364.140625 351.15625 C 357.179688 379.414062 354.160156 511.859375 353.902344 554.335938 C 353.878906 559.886719 349.332031 564.410156 343.804688 564.457031 C 335.0625 564.527344 323.464844 565.816406 317.84375 571.695312 C 315.664062 574.015625 314.5625 576.875 314.609375 580.246094 Z M 314.609375 580.246094 " fill-opacity="1" fill-rule="nonzero"/><path fill="#4d55f5" d="M 344.15625 581.277344 C 343.96875 581.277344 343.78125 581.160156 343.6875 580.972656 C 342.703125 578.816406 343.875 576.054688 345.535156 574.71875 C 347.222656 573.359375 349.402344 572.84375 351.300781 572.375 L 361.398438 569.960938 C 364.585938 569.210938 367.675781 568.132812 368.707031 565.582031 C 368.824219 565.324219 369.105469 565.183594 369.386719 565.300781 C 369.644531 565.417969 369.785156 565.699219 369.667969 565.980469 C 368.449219 568.976562 365.101562 570.148438 361.65625 570.96875 L 351.558594 573.382812 C 349.753906 573.804688 347.714844 574.296875 346.191406 575.515625 C 344.832031 576.617188 343.875 578.886719 344.644531 580.527344 C 344.761719 580.785156 344.644531 581.089844 344.390625 581.207031 C 344.296875 581.253906 344.226562 581.277344 344.15625 581.277344 Z M 344.15625 581.277344 " fill-opacity="1" fill-rule="nonzero"/><path fill="#4d55f5" d="M 397.855469 546.671875 C 397.832031 546.671875 397.832031 546.671875 397.808594 546.671875 C 383.492188 545.476562 368.941406 545.242188 354.605469 545.992188 C 354.324219 545.992188 354.089844 545.78125 354.066406 545.5 C 354.042969 545.21875 354.277344 544.960938 354.558594 544.960938 C 368.941406 544.214844 383.539062 544.449219 397.902344 545.640625 C 398.183594 545.664062 398.394531 545.921875 398.371094 546.203125 C 398.347656 546.484375 398.113281 546.671875 397.855469 546.671875 Z M 397.855469 546.671875 " fill-opacity="1" fill-rule="nonzero"/><path fill="#132644" d="M 501.246094 467.25 L 423.53125 469.308594 C 423.53125 469.308594 368.378906 422.828125 387.03125 334.007812 L 385.226562 327.398438 C 385.226562 327.398438 423.179688 318.519531 440.238281 322.339844 C 440.238281 322.339844 446.632812 328.148438 448.789062 335.554688 C 450.945312 342.933594 501.246094 467.25 501.246094 467.25 Z M 501.246094 467.25 " fill-opacity="1" fill-rule="nonzero"/><path fill="#f6f6f6" d="M 419.339844 291.0625 L 434.988281 327.398438 L 410.972656 354.4375 L 392.371094 309.6875 Z M 419.339844 291.0625 " fill-opacity="1" fill-rule="nonzero"/><path fill="#4d55f5" d="M 402.65625 364.324219 C 402.539062 364.324219 402.421875 364.277344 402.304688 364.183594 C 402.09375 363.996094 402.070312 363.667969 402.257812 363.457031 L 434.589844 327.046875 C 434.777344 326.835938 435.105469 326.8125 435.316406 327 C 435.527344 327.1875 435.550781 327.515625 435.363281 327.726562 L 403.03125 364.136719 C 402.9375 364.277344 402.796875 364.324219 402.65625 364.324219 Z M 402.65625 364.324219 " fill-opacity="1" fill-rule="nonzero"/><path fill="#4d55f5" d="M 398.605469 325.21875 C 398.394531 325.21875 398.207031 325.101562 398.136719 324.894531 L 391.902344 309.875 C 391.785156 309.617188 391.925781 309.3125 392.183594 309.195312 C 392.441406 309.078125 392.746094 309.21875 392.863281 309.476562 L 399.097656 324.496094 C 399.214844 324.753906 399.074219 325.054688 398.816406 325.171875 C 398.746094 325.195312 398.675781 325.21875 398.605469 325.21875 Z M 398.605469 325.21875 " fill-opacity="1" fill-rule="nonzero"/><path fill="#f6f6f6" d="M 413.691406 292.253906 L 418.167969 282.15625 C 418.167969 282.15625 422.429688 275.386719 430.445312 279.675781 C 438.457031 283.960938 436.019531 300.410156 418.777344 298.722656 C 418.777344 298.722656 411.792969 320.394531 393.589844 318.988281 C 375.386719 317.582031 365.945312 298.207031 374.238281 272.949219 C 374.238281 272.949219 382.085938 274.308594 389.253906 270.253906 C 389.253906 270.277344 392.746094 286.445312 413.691406 292.253906 Z M 413.691406 292.253906 " fill-opacity="1" fill-rule="nonzero"/><path fill="#4d55f5" d="M 395.277344 319.574219 C 394.714844 319.574219 394.152344 319.550781 393.566406 319.503906 C 386.023438 318.917969 379.859375 315.355469 375.761719 309.21875 C 369.808594 300.316406 369.082031 287.03125 373.769531 272.808594 C 373.839844 272.574219 374.097656 272.410156 374.355469 272.457031 C 374.425781 272.480469 382.109375 273.722656 389.042969 269.835938 C 389.183594 269.765625 389.347656 269.742188 389.511719 269.8125 C 389.652344 269.882812 389.769531 270.023438 389.816406 270.160156 C 389.839844 270.324219 393.449219 285.882812 413.457031 291.625 L 417.746094 281.921875 C 417.746094 281.898438 417.769531 281.875 417.792969 281.851562 C 417.839844 281.78125 422.40625 274.730469 430.75 279.207031 C 434.566406 281.265625 436.324219 286.117188 434.917969 290.734375 C 433.511719 295.394531 428.617188 300.035156 419.175781 299.261719 C 418.097656 302.144531 411.089844 319.574219 395.277344 319.574219 Z M 374.589844 273.535156 C 370.160156 287.3125 370.886719 300.082031 376.605469 308.632812 C 380.515625 314.511719 386.421875 317.910156 393.636719 318.472656 C 411.207031 319.832031 418.238281 298.769531 418.285156 298.558594 C 418.355469 298.324219 418.589844 298.183594 418.824219 298.207031 C 427.914062 299.097656 432.550781 294.785156 433.886719 290.453125 C 435.152344 286.28125 433.605469 281.945312 430.210938 280.121094 C 422.898438 276.207031 418.964844 281.851562 418.636719 282.390625 L 414.160156 292.464844 C 414.066406 292.699219 413.785156 292.816406 413.550781 292.746094 C 394.949219 287.59375 389.863281 274.167969 388.925781 271.027344 C 382.742188 274.285156 376.324219 273.769531 374.589844 273.535156 Z M 374.589844 273.535156 " fill-opacity="1" fill-rule="nonzero"/><path fill="#4d55f5" d="M 418.355469 294.714844 C 418.261719 294.714844 418.167969 294.691406 418.074219 294.644531 C 417.839844 294.503906 417.769531 294.175781 417.910156 293.941406 C 419.667969 291.109375 422.546875 289.023438 425.78125 288.203125 C 426.0625 288.132812 426.34375 288.296875 426.414062 288.578125 C 426.484375 288.859375 426.320312 289.140625 426.039062 289.210938 C 423.0625 289.960938 420.417969 291.882812 418.800781 294.480469 C 418.707031 294.621094 418.542969 294.714844 418.355469 294.714844 Z M 418.355469 294.714844 " fill-opacity="1" fill-rule="nonzero"/><path fill="#f6f6f6" d="M 513.78125 569.890625 C 513.78125 569.890625 449.609375 413.640625 443.539062 395.34375 C 437.472656 377.023438 437.871094 341.644531 447.3125 329.742188 C 447.3125 329.742188 482.363281 323.933594 512.820312 379.671875 C 543.277344 435.429688 572.285156 519.167969 572.285156 519.167969 C 572.285156 519.167969 557.40625 553.023438 513.78125 569.890625 Z M 513.78125 569.890625 " fill-opacity="1" fill-rule="nonzero"/><path fill="#f6f6f6" d="M 467.367188 333.257812 C 480.089844 338.480469 497.078125 350.851562 512.84375 379.671875 C 543.300781 435.429688 572.308594 519.167969 572.308594 519.167969 C 572.308594 519.167969 557.40625 553.023438 513.78125 569.914062 C 513.78125 569.914062 493.304688 520.035156 474.375 473.339844 Z M 467.367188 333.257812 " fill-opacity="1" fill-rule="nonzero"/><path fill="#4d55f5" d="M 513.78125 570.429688 C 513.570312 570.429688 513.382812 570.3125 513.3125 570.101562 C 513.101562 569.609375 492.601562 519.683594 473.90625 473.527344 C 473.789062 473.269531 473.929688 472.964844 474.1875 472.847656 C 474.445312 472.730469 474.75 472.871094 474.867188 473.128906 C 492.601562 516.894531 511.953125 564.035156 514.085938 569.234375 C 555.015625 553.1875 570.503906 521.816406 571.769531 519.144531 C 570.175781 514.574219 541.78125 433.722656 512.398438 379.929688 C 496.304688 350.476562 478.917969 338.550781 467.179688 333.726562 C 466.921875 333.609375 466.78125 333.328125 466.898438 333.046875 C 467.015625 332.789062 467.320312 332.648438 467.578125 332.765625 C 479.480469 337.636719 497.078125 349.703125 513.3125 379.414062 C 543.441406 434.566406 572.519531 518.136719 572.824219 518.980469 C 572.871094 519.097656 572.871094 519.238281 572.800781 519.355469 C 572.753906 519.449219 568.933594 528 559.820312 538.519531 C 551.410156 548.21875 536.625 561.597656 513.992188 570.359375 C 513.921875 570.40625 513.851562 570.429688 513.78125 570.429688 Z M 513.78125 570.429688 " fill-opacity="1" fill-rule="nonzero"/><path fill="#f6f6f6" d="M 516.734375 394.382812 C 506.964844 369.757812 452.351562 358.816406 452.351562 358.816406 L 471.257812 420.789062 L 443.074219 420.953125 C 444.640625 435.546875 443.796875 450.378906 440.613281 464.71875 C 459.191406 468.160156 480.207031 470.503906 497.710938 468.089844 C 539.039062 462.375 526.503906 419.007812 516.734375 394.382812 Z M 516.734375 394.382812 " fill-opacity="1" fill-rule="nonzero"/><path fill="#f6f6f6" d="M 443.097656 420.929688 L 416.644531 421.070312 C 416.644531 421.070312 419.855469 404.246094 410.972656 404.433594 C 402.09375 404.621094 402.1875 425.871094 396.542969 428.824219 C 396.542969 428.824219 381.359375 436.25 375.105469 437.84375 C 368.847656 439.4375 359.804688 441.21875 361.210938 447.472656 C 361.210938 447.472656 353.199219 452.066406 361.585938 457.40625 C 361.585938 457.40625 364.773438 464.976562 393.449219 453.707031 C 394.574219 453.261719 415.332031 459.984375 440.636719 464.671875 C 443.820312 450.378906 444.664062 435.523438 443.097656 420.929688 Z M 443.097656 420.929688 " fill-opacity="1" fill-rule="nonzero"/><path fill="#4d55f5" d="M 419.574219 460.710938 C 419.527344 460.710938 419.503906 460.710938 419.457031 460.6875 C 412.566406 459.046875 406.570312 457.453125 402.164062 456.285156 C 397.878906 455.160156 394.199219 454.175781 393.566406 454.199219 C 366.738281 464.71875 361.820312 458.882812 361.164062 457.757812 C 358.492188 456.027344 357.179688 454.175781 357.226562 452.230469 C 357.296875 449.652344 359.734375 447.800781 360.625 447.214844 C 359.59375 441.148438 367.746094 439.132812 373.722656 437.632812 C 374.144531 437.539062 374.566406 437.421875 374.964844 437.328125 C 381.101562 435.78125 396.144531 428.425781 396.308594 428.355469 C 396.566406 428.238281 396.871094 428.332031 396.988281 428.589844 C 397.105469 428.847656 397.011719 429.152344 396.753906 429.269531 C 396.121094 429.574219 381.453125 436.742188 375.222656 438.3125 C 374.824219 438.40625 374.402344 438.523438 373.980469 438.617188 C 367.980469 440.117188 360.507812 441.96875 361.703125 447.332031 C 361.75 447.542969 361.65625 447.777344 361.445312 447.894531 C 361.421875 447.917969 358.304688 449.746094 358.257812 452.230469 C 358.210938 453.824219 359.429688 455.417969 361.84375 456.9375 C 361.9375 456.984375 362.007812 457.078125 362.03125 457.171875 C 362.054688 457.242188 365.617188 464.039062 393.238281 453.191406 C 393.777344 452.980469 395.347656 453.355469 402.445312 455.253906 C 406.828125 456.425781 412.847656 457.992188 419.714844 459.65625 C 419.996094 459.726562 420.160156 460.007812 420.089844 460.289062 C 420.019531 460.546875 419.808594 460.710938 419.574219 460.710938 Z M 419.574219 460.710938 " fill-opacity="1" fill-rule="nonzero"/><path fill="#4d55f5" d="M 362.242188 456.027344 C 362.195312 456.027344 362.171875 456.027344 362.125 456.003906 C 361.84375 455.933594 361.679688 455.652344 361.75 455.371094 C 362.40625 452.605469 364.773438 450.941406 366.109375 450.214844 C 367.746094 449.324219 369.527344 448.785156 371.285156 448.269531 C 371.636719 448.175781 371.988281 448.058594 372.339844 447.964844 C 378.125 446.207031 383.609375 443.609375 388.621094 440.234375 C 390.332031 439.085938 392.066406 437.773438 393.003906 435.96875 C 393.144531 435.710938 393.449219 435.617188 393.707031 435.757812 C 393.964844 435.898438 394.058594 436.203125 393.917969 436.460938 C 392.863281 438.453125 391.035156 439.859375 389.183594 441.101562 C 384.078125 444.523438 378.5 447.167969 372.621094 448.949219 C 372.269531 449.066406 371.917969 449.160156 371.566406 449.253906 C 369.878906 449.746094 368.144531 450.261719 366.601562 451.105469 C 364.5625 452.207031 363.179688 453.847656 362.757812 455.605469 C 362.6875 455.863281 362.476562 456.027344 362.242188 456.027344 Z M 362.242188 456.027344 " fill-opacity="1" fill-rule="nonzero"/><path fill="#4d55f5" d="M 363.648438 447.332031 C 363.414062 447.332031 363.203125 447.167969 363.15625 446.933594 C 363.085938 446.652344 363.25 446.371094 363.53125 446.300781 L 371.449219 444.382812 C 375.785156 443.328125 380.257812 442.25 383.984375 439.671875 C 384.21875 439.507812 384.546875 439.578125 384.710938 439.8125 C 384.875 440.046875 384.804688 440.375 384.570312 440.539062 C 380.703125 443.210938 375.925781 444.382812 371.707031 445.414062 L 363.789062 447.332031 C 363.742188 447.332031 363.695312 447.332031 363.648438 447.332031 Z M 363.648438 447.332031 " fill-opacity="1" fill-rule="nonzero"/><path fill="#4d55f5" d="M 482.082031 469.566406 C 470.109375 469.566406 456.214844 468.113281 440.519531 465.210938 C 440.378906 465.1875 440.261719 465.09375 440.191406 464.976562 C 440.121094 464.859375 440.097656 464.71875 440.121094 464.578125 C 443.332031 450.238281 444.148438 435.570312 442.582031 421 C 442.558594 420.859375 442.605469 420.71875 442.699219 420.601562 C 442.792969 420.484375 442.933594 420.4375 443.074219 420.4375 L 470.554688 420.273438 L 451.859375 358.957031 C 451.765625 358.675781 451.929688 358.394531 452.210938 358.324219 C 452.492188 358.230469 452.773438 358.394531 452.84375 358.675781 L 471.75 420.648438 C 471.796875 420.8125 471.773438 420.976562 471.679688 421.09375 C 471.585938 421.234375 471.421875 421.304688 471.257812 421.304688 L 443.65625 421.46875 C 445.132812 435.78125 444.335938 450.191406 441.246094 464.296875 C 464.042969 468.488281 483.019531 469.566406 497.664062 467.578125 C 509.144531 466.007812 517.226562 461.320312 521.699219 453.660156 C 528.800781 441.476562 526.972656 421.609375 516.265625 394.59375 C 516.171875 394.335938 516.289062 394.03125 516.546875 393.914062 C 516.804688 393.820312 517.109375 393.9375 517.226562 394.195312 C 528.050781 421.539062 529.855469 441.710938 522.589844 454.175781 C 517.953125 462.117188 509.609375 466.96875 497.804688 468.582031 C 493 469.238281 487.75 469.566406 482.082031 469.566406 Z M 482.082031 469.566406 " fill-opacity="1" fill-rule="nonzero"/><path fill="#f6f6f6" d="M 115.0625 529.3125 L 314.09375 529.3125 L 314.09375 580.761719 L 115.0625 580.761719 Z M 115.0625 529.3125 " fill-opacity="1" fill-rule="nonzero"/><path fill="#4d55f5" d="M 314.09375 581.277344 L 115.0625 581.277344 C 114.78125 581.277344 114.546875 581.042969 114.546875 580.761719 L 114.546875 529.3125 C 114.546875 529.03125 114.78125 528.796875 115.0625 528.796875 L 314.09375 528.796875 C 314.375 528.796875 314.609375 529.03125 314.609375 529.3125 L 314.609375 580.761719 C 314.609375 581.042969 314.375 581.277344 314.09375 581.277344 Z M 115.578125 580.246094 L 313.578125 580.246094 L 313.578125 529.828125 L 115.578125 529.828125 Z M 115.578125 580.246094 " fill-opacity="1" fill-rule="nonzero"/><path fill="#132644" d="M 166.117188 295.347656 L 214.871094 280.800781 L 266.160156 287.21875 L 297.390625 303.546875 C 313.554688 315.214844 325.363281 331.945312 330.941406 351.085938 L 347.386719 407.457031 C 354.464844 431.753906 338.648438 456.753906 313.671875 460.734375 L 315.359375 537.675781 L 109.230469 537.675781 L 107.542969 503.539062 C 87.816406 482.546875 81.042969 452.511719 89.855469 425.097656 L 115.601562 344.832031 C 123.242188 321.027344 142.148438 302.496094 166.117188 295.347656 Z M 166.117188 295.347656 " fill-opacity="1" fill-rule="nonzero"/><path fill="#f6f6f6" d="M 275.625 556.441406 C 276.257812 547.890625 273.421875 539.410156 269.695312 531.703125 C 261.355469 514.527344 248.328125 499.886719 233.148438 488.3125 C 230.59375 486.367188 227.992188 484.515625 225.320312 482.734375 C 222.675781 485.476562 220.050781 488.242188 217.449219 491.003906 C 209.90625 499.089844 202.570312 507.359375 195.496094 515.839844 C 189.570312 522.960938 183.804688 530.25 178.300781 537.699219 C 190.414062 542.503906 202.195312 548.265625 215.222656 555.835938 C 218.644531 557.824219 202.429688 562.675781 226.210938 570.898438 C 229.960938 572.1875 233.710938 566.003906 231.90625 562.464844 C 234.203125 564.785156 238.089844 565.347656 240.949219 563.753906 C 243.808594 562.160156 245.355469 558.550781 244.558594 555.367188 C 245.960938 558.222656 250.203125 558.714844 252.851562 556.933594 C 255.5 555.15625 256.738281 551.898438 257.183594 548.734375 C 258.964844 558.222656 256.34375 575.304688 267.097656 575.890625 C 274.898438 572.375 274.992188 565.019531 275.625 556.441406 Z M 275.625 556.441406 " fill-opacity="1" fill-rule="nonzero"/><path fill="#4d55f5" d="M 267.074219 576.40625 C 267.074219 576.40625 267.050781 576.40625 267.050781 576.40625 C 258.566406 575.9375 257.980469 565.886719 257.441406 557.003906 C 257.324219 555.132812 257.230469 553.304688 257.042969 551.617188 C 256.390625 553.75 255.195312 555.925781 253.109375 557.332031 C 251.515625 558.386719 249.359375 558.738281 247.460938 558.222656 C 246.59375 557.988281 245.84375 557.589844 245.261719 557.074219 C 245.238281 559.910156 243.667969 562.746094 241.183594 564.152344 C 238.628906 565.582031 235.300781 565.394531 232.84375 563.847656 C 233.078125 565.886719 232.164062 568.132812 230.898438 569.609375 C 229.445312 571.273438 227.6875 571.882812 226.023438 571.320312 C 217.800781 568.484375 213.417969 565.722656 212.601562 562.863281 C 211.992188 560.800781 213.324219 559.113281 214.308594 557.917969 C 214.730469 557.378906 215.246094 556.722656 215.199219 556.464844 C 215.175781 556.371094 215.035156 556.277344 214.964844 556.230469 C 202.101562 548.757812 190.390625 542.996094 178.113281 538.121094 C 177.855469 538.027344 177.714844 537.722656 177.832031 537.441406 C 177.925781 537.183594 178.230469 537.042969 178.511719 537.160156 C 190.832031 542.058594 202.59375 547.820312 215.503906 555.320312 C 215.925781 555.554688 216.160156 555.878906 216.230469 556.253906 C 216.371094 556.980469 215.785156 557.707031 215.128906 558.550781 C 214.214844 559.699219 213.160156 561.011719 213.605469 562.582031 C 214.332031 565.042969 218.621094 567.664062 226.375 570.335938 C 228.132812 570.945312 229.585938 569.539062 230.125 568.929688 C 231.507812 567.335938 232.445312 564.597656 231.4375 562.652344 C 231.320312 562.417969 231.390625 562.136719 231.601562 561.996094 C 231.8125 561.855469 232.09375 561.878906 232.28125 562.042969 C 234.414062 564.222656 238.042969 564.738281 240.691406 563.238281 C 243.363281 561.738281 244.792969 558.386719 244.066406 555.4375 C 243.996094 555.179688 244.136719 554.921875 244.394531 554.828125 C 244.652344 554.734375 244.910156 554.851562 245.027344 555.085938 C 245.519531 556.113281 246.5 556.863281 247.765625 557.214844 C 249.382812 557.660156 251.234375 557.355469 252.570312 556.464844 C 255.335938 554.617188 256.320312 551.171875 256.691406 548.617188 C 256.714844 548.359375 256.949219 548.171875 257.183594 548.171875 C 257.441406 548.171875 257.652344 548.335938 257.699219 548.59375 C 258.144531 551.03125 258.332031 553.890625 258.496094 556.910156 C 259.011719 565.746094 259.550781 574.859375 267.074219 575.328125 C 274.171875 574.15625 274.546875 567.078125 274.945312 559.605469 C 274.992188 558.527344 275.0625 557.449219 275.132812 556.371094 C 275.554688 550.679688 274.476562 544.636719 271.851562 537.839844 C 271.757812 537.582031 271.875 537.277344 272.15625 537.183594 C 272.414062 537.089844 272.71875 537.207031 272.8125 537.488281 C 275.484375 544.425781 276.585938 550.632812 276.164062 556.464844 C 276.09375 557.519531 276.023438 558.597656 275.976562 559.675781 C 275.578125 567.265625 275.15625 575.117188 267.191406 576.382812 C 267.121094 576.40625 267.097656 576.40625 267.074219 576.40625 Z M 267.074219 576.40625 " fill-opacity="1" fill-rule="nonzero"/><path fill="#4d55f5" d="M 222.839844 561.644531 C 222.746094 561.644531 222.628906 561.621094 222.535156 561.550781 L 215.457031 556.464844 C 215.222656 556.300781 215.175781 555.972656 215.339844 555.742188 C 215.503906 555.507812 215.832031 555.460938 216.066406 555.625 L 223.144531 560.707031 C 223.378906 560.871094 223.425781 561.199219 223.261719 561.433594 C 223.144531 561.574219 222.980469 561.644531 222.839844 561.644531 Z M 222.839844 561.644531 " fill-opacity="1" fill-rule="nonzero"/><path fill="#4d55f5" d="M 178.277344 538.214844 C 178.207031 538.214844 178.136719 538.191406 178.042969 538.167969 L 117.453125 508.929688 C 117.195312 508.8125 117.078125 508.507812 117.21875 508.25 C 117.335938 507.992188 117.640625 507.875 117.898438 508.015625 L 178.488281 537.253906 C 178.746094 537.371094 178.863281 537.675781 178.722656 537.933594 C 178.652344 538.097656 178.464844 538.214844 178.277344 538.214844 Z M 178.277344 538.214844 " fill-opacity="1" fill-rule="nonzero"/><path fill="#4d55f5" d="M 225.296875 483.226562 C 225.203125 483.226562 225.109375 483.203125 225.015625 483.15625 L 140.273438 429.949219 C 140.039062 429.808594 139.96875 429.480469 140.109375 429.246094 C 140.25 429.011719 140.578125 428.941406 140.8125 429.082031 L 225.554688 482.3125 C 225.789062 482.453125 225.859375 482.78125 225.71875 483.015625 C 225.648438 483.15625 225.484375 483.226562 225.296875 483.226562 Z M 225.296875 483.226562 " fill-opacity="1" fill-rule="nonzero"/><path fill="#4d55f5" d="M 162.789062 437.304688 C 162.742188 437.304688 162.695312 437.304688 162.648438 437.28125 C 162.414062 437.234375 162.226562 437 162.226562 436.742188 C 162.226562 436.578125 162.320312 436.414062 162.4375 436.320312 C 163.984375 433.488281 181.109375 389.933594 187.695312 373.109375 C 187.789062 372.851562 188.09375 372.710938 188.375 372.828125 C 188.632812 372.921875 188.773438 373.226562 188.65625 373.507812 C 188.585938 373.671875 182.375 389.582031 176.167969 405.277344 C 172.511719 414.507812 169.582031 421.84375 167.453125 427.113281 C 163.65625 436.4375 163.257812 437.304688 162.789062 437.304688 Z M 163.257812 436.742188 Z M 163.257812 436.742188 " fill-opacity="1" fill-rule="nonzero"/><path fill="#f6f6f6" d="M 203.390625 284.21875 L 246.3125 369.734375 L 266.160156 287.21875 C 249.546875 283.515625 226.820312 274.917969 203.390625 284.21875 Z M 203.390625 284.21875 " fill-opacity="1" fill-rule="nonzero"/><path fill="#132644" d="M 246.3125 370.25 C 246.125 370.25 245.9375 370.132812 245.84375 369.96875 L 202.921875 284.453125 C 202.851562 284.3125 202.851562 284.171875 202.898438 284.03125 C 202.945312 283.890625 203.0625 283.796875 203.179688 283.726562 C 223.097656 275.832031 242.472656 280.730469 258.050781 284.6875 C 260.933594 285.414062 263.675781 286.117188 266.277344 286.679688 C 266.417969 286.703125 266.535156 286.796875 266.605469 286.914062 C 266.675781 287.03125 266.699219 287.171875 266.675781 287.3125 L 246.828125 369.828125 C 246.78125 370.039062 246.59375 370.203125 246.382812 370.226562 C 246.359375 370.25 246.335938 370.25 246.3125 370.25 Z M 204.09375 284.5 L 246.148438 368.238281 L 265.550781 287.59375 C 263.089844 287.03125 260.535156 286.398438 257.816406 285.695312 C 242.519531 281.828125 223.519531 277.003906 204.09375 284.5 Z M 204.09375 284.5 " fill-opacity="1" fill-rule="nonzero"/><path fill="#f6f6f6" d="M 208.5 285.296875 L 220.871094 266.578125 L 236.730469 293.238281 L 255.054688 289.726562 L 256.578125 305.1875 L 252.195312 316.644531 L 243.433594 308.679688 L 231.320312 319.550781 Z M 208.5 285.296875 " fill-opacity="1" fill-rule="nonzero"/><path fill="#132644" d="M 231.320312 320.066406 C 231.296875 320.066406 231.273438 320.066406 231.25 320.066406 C 231.109375 320.042969 230.96875 319.972656 230.875 319.832031 L 208.054688 285.601562 C 207.9375 285.4375 207.9375 285.203125 208.054688 285.039062 L 220.425781 266.320312 C 220.519531 266.179688 220.707031 266.085938 220.871094 266.085938 C 221.058594 266.085938 221.222656 266.179688 221.292969 266.34375 L 236.964844 292.699219 L 254.9375 289.257812 C 255.078125 289.234375 255.21875 289.257812 255.335938 289.351562 C 255.453125 289.445312 255.523438 289.5625 255.546875 289.703125 L 257.066406 305.164062 C 257.066406 305.234375 257.066406 305.328125 257.042969 305.398438 L 252.664062 316.855469 C 252.59375 317.019531 252.476562 317.136719 252.3125 317.183594 C 252.148438 317.230469 251.960938 317.183594 251.84375 317.066406 L 243.410156 309.40625 L 231.648438 319.925781 C 231.554688 320.019531 231.4375 320.066406 231.320312 320.066406 Z M 209.109375 285.296875 L 231.414062 318.753906 L 243.082031 308.28125 C 243.269531 308.09375 243.574219 308.09375 243.785156 308.28125 L 251.984375 315.730469 L 256.0625 305.09375 L 254.609375 290.3125 L 236.847656 293.707031 C 236.636719 293.753906 236.425781 293.660156 236.308594 293.472656 L 220.871094 267.515625 Z M 209.109375 285.296875 " fill-opacity="1" fill-rule="nonzero"/><path fill="#f6f6f6" d="M 270.234375 249.261719 L 272.859375 270.535156 C 272.859375 270.535156 262.691406 291.53125 247.296875 292.019531 C 231.882812 292.511719 225.15625 269.554688 223.449219 255.191406 C 221.761719 240.851562 235.464844 225.648438 235.464844 225.648438 Z M 270.234375 249.261719 " fill-opacity="1" fill-rule="nonzero"/><path fill="#4d55f5" d="M 246.828125 292.535156 C 232.46875 292.535156 224.992188 272.550781 222.957031 255.261719 C 221.246094 240.851562 234.554688 225.953125 235.113281 225.320312 C 235.277344 225.132812 235.582031 225.085938 235.792969 225.25 L 270.539062 248.839844 C 270.65625 248.933594 270.75 249.050781 270.75 249.214844 L 273.375 270.488281 C 273.398438 270.582031 273.375 270.675781 273.328125 270.769531 C 272.90625 271.636719 262.855469 292.042969 247.296875 292.535156 C 247.15625 292.535156 246.992188 292.535156 246.828125 292.535156 Z M 235.582031 226.347656 C 233.617188 228.667969 222.464844 242.351562 223.984375 255.144531 C 225.976562 272.011719 233.171875 291.507812 246.851562 291.507812 C 246.992188 291.507812 247.15625 291.507812 247.320312 291.507812 C 261.613281 291.0625 271.476562 272.246094 272.367188 270.441406 L 269.789062 249.542969 Z M 235.582031 226.347656 " fill-opacity="1" fill-rule="nonzero"/><path fill="#4d55f5" d="M 241.277344 239.914062 C 241.277344 239.914062 273.234375 262.640625 289.585938 248.933594 C 305.941406 235.253906 285.230469 217.585938 278.878906 213.113281 C 272.554688 208.636719 256.554688 198.867188 242.777344 210.042969 C 242.777344 210.042969 233.757812 200.765625 223.214844 210.441406 C 212.667969 220.117188 211.546875 238.789062 212.4375 243.59375 C 213.324219 248.394531 213.136719 294.269531 235.792969 303.359375 C 258.449219 312.453125 273.070312 302.613281 273.773438 283.375 C 274.078125 275.011719 272.953125 267.820312 272.953125 267.820312 C 272.953125 267.820312 271.945312 277.566406 252.96875 278.339844 C 232.328125 279.183594 225.109375 267.75 226.703125 255.777344 C 228.25 243.851562 241.277344 239.914062 241.277344 239.914062 Z M 241.277344 239.914062 " fill-opacity="1" fill-rule="nonzero"/><path fill="#f6f6f6" d="M 221.644531 260.835938 C 221.644531 260.835938 219.535156 244.695312 210.023438 245.421875 C 203.132812 245.960938 208.5 267.773438 216.089844 266.507812 C 223.65625 265.242188 221.644531 260.835938 221.644531 260.835938 Z M 221.644531 260.835938 " fill-opacity="1" fill-rule="nonzero"/><path fill="#4d55f5" d="M 215.433594 267.09375 C 213.722656 267.09375 212.0625 266.085938 210.539062 264.140625 C 207.046875 259.664062 205.265625 251.113281 207 247.203125 C 207.609375 245.820312 208.640625 245.023438 209.976562 244.90625 C 219.652344 244.15625 221.949219 259.359375 222.136719 260.695312 C 222.277344 261.046875 222.722656 262.429688 221.972656 263.882812 C 221.128906 265.453125 219.183594 266.53125 216.183594 267.023438 C 215.925781 267.070312 215.691406 267.09375 215.433594 267.09375 Z M 210.632812 245.9375 C 210.445312 245.9375 210.257812 245.9375 210.070312 245.960938 C 209.132812 246.03125 208.429688 246.59375 207.960938 247.625 C 206.367188 251.253906 208.078125 259.265625 211.382812 263.507812 C 212.414062 264.84375 214.050781 266.34375 216.019531 266.015625 C 218.644531 265.570312 220.402344 264.679688 221.058594 263.414062 C 221.691406 262.242188 221.199219 261.09375 221.175781 261.046875 C 221.152344 261 221.128906 260.953125 221.128906 260.90625 C 221.105469 260.765625 219.066406 245.9375 210.632812 245.9375 Z M 210.632812 245.9375 " fill-opacity="1" fill-rule="nonzero"/><path fill="#4d55f5" d="M 217.800781 262.453125 C 217.589844 262.453125 217.402344 262.335938 217.332031 262.125 C 216.277344 259.570312 214.238281 257.417969 211.710938 256.246094 C 211.453125 256.128906 211.335938 255.824219 211.453125 255.566406 C 211.570312 255.308594 211.875 255.191406 212.132812 255.308594 C 214.871094 256.597656 217.097656 258.941406 218.269531 261.726562 C 218.386719 261.984375 218.246094 262.289062 217.988281 262.40625 C 217.941406 262.429688 217.871094 262.453125 217.800781 262.453125 Z M 217.800781 262.453125 " fill-opacity="1" fill-rule="nonzero"/><path fill="#4d55f5" d="M 326.628906 452.066406 L 246.148438 452.066406 C 241.558594 452.066406 238.347656 447.542969 239.871094 443.210938 L 272.929688 348.953125 C 273.867188 346.285156 276.375 344.503906 279.207031 344.503906 L 359.6875 344.503906 C 364.28125 344.503906 367.488281 349.023438 365.96875 353.359375 L 332.910156 447.613281 C 331.972656 450.285156 329.464844 452.066406 326.628906 452.066406 Z M 326.628906 452.066406 " fill-opacity="1" fill-rule="nonzero"/><path fill="#f6f6f6" d="M 340.40625 425.121094 C 340.40625 425.121094 358.421875 424.910156 368.800781 399.914062 C 379.179688 374.9375 371.894531 368.378906 365.78125 361.910156 C 359.664062 355.445312 353.105469 353.570312 352.472656 358.089844 C 352.472656 358.089844 342.515625 354.695312 345.042969 366.714844 C 345.042969 366.714844 337.617188 368.191406 342.679688 378.429688 C 342.679688 378.429688 335.648438 383.863281 350.128906 398.132812 Z M 340.40625 425.121094 " fill-opacity="1" fill-rule="nonzero"/><path fill="#4d55f5" d="M 340.40625 425.636719 C 340.242188 425.636719 340.078125 425.566406 339.984375 425.425781 C 339.890625 425.285156 339.867188 425.121094 339.914062 424.957031 L 349.496094 398.25 C 341.695312 390.496094 340.265625 385.292969 340.453125 382.269531 C 340.59375 380.113281 341.53125 378.828125 342.046875 378.289062 C 340.265625 374.539062 339.914062 371.515625 341.039062 369.242188 C 341.953125 367.371094 343.617188 366.597656 344.460938 366.316406 C 343.734375 362.519531 344.226562 359.824219 345.886719 358.347656 C 347.855469 356.617188 350.855469 357.109375 352.097656 357.414062 C 352.472656 356.054688 353.363281 355.46875 354.113281 355.234375 C 356.921875 354.34375 361.773438 356.875 366.179688 361.535156 L 366.714844 362.121094 C 372.714844 368.425781 379.484375 375.546875 369.292969 400.101562 C 358.890625 425.121094 340.59375 425.636719 340.40625 425.636719 Z M 349.613281 358.160156 C 348.558594 358.160156 347.410156 358.371094 346.542969 359.144531 C 345.113281 360.410156 344.761719 362.917969 345.535156 366.597656 C 345.558594 366.738281 345.535156 366.878906 345.464844 366.996094 C 345.394531 367.113281 345.277344 367.183594 345.136719 367.207031 C 345.113281 367.207031 342.9375 367.675781 341.929688 369.734375 C 340.945312 371.75 341.34375 374.585938 343.125 378.195312 C 343.242188 378.40625 343.171875 378.6875 342.984375 378.828125 C 342.9375 378.875 341.625 379.925781 341.484375 382.386719 C 341.34375 385.199219 342.773438 390.167969 350.457031 397.734375 C 350.597656 397.875 350.644531 398.085938 350.574219 398.273438 L 341.15625 424.535156 C 344.667969 424.136719 359.40625 421.164062 368.308594 399.726562 C 378.242188 375.804688 371.988281 369.21875 365.945312 362.847656 L 365.382812 362.261719 C 360.625 357.226562 356.335938 355.609375 354.371094 356.242188 C 353.574219 356.5 353.105469 357.132812 352.964844 358.136719 C 352.941406 358.277344 352.847656 358.417969 352.730469 358.511719 C 352.589844 358.582031 352.449219 358.605469 352.285156 358.558594 C 352.285156 358.558594 351.042969 358.160156 349.613281 358.160156 Z M 349.613281 358.160156 " fill-opacity="1" fill-rule="nonzero"/><path fill="#4d55f5" d="M 360.929688 394.335938 C 360.789062 394.335938 360.625 394.265625 360.53125 394.148438 C 356.78125 389.488281 352.777344 384.941406 348.605469 380.652344 C 347.785156 379.8125 347.105469 379.132812 346.238281 378.710938 C 345.300781 378.242188 344.320312 378.171875 343.59375 378.546875 C 343.335938 378.6875 343.03125 378.570312 342.890625 378.335938 C 342.75 378.078125 342.867188 377.773438 343.101562 377.632812 C 344.132812 377.09375 345.464844 377.164062 346.707031 377.773438 C 347.785156 378.3125 348.652344 379.203125 349.355469 379.925781 C 353.550781 384.238281 357.578125 388.808594 361.351562 393.515625 C 361.539062 393.726562 361.492188 394.054688 361.28125 394.242188 C 361.140625 394.289062 361.023438 394.335938 360.929688 394.335938 Z M 360.929688 394.335938 " fill-opacity="1" fill-rule="nonzero"/><path fill="#4d55f5" d="M 364.960938 385.011719 C 364.820312 385.011719 364.679688 384.941406 364.5625 384.847656 L 351.957031 370.484375 C 351.089844 369.476562 350.175781 368.449219 349.050781 367.746094 C 347.855469 366.996094 346.566406 366.785156 345.511719 367.136719 C 345.253906 367.230469 344.949219 367.089844 344.855469 366.808594 C 344.761719 366.527344 344.902344 366.246094 345.183594 366.152344 C 346.519531 365.683594 348.136719 365.941406 349.589844 366.855469 C 350.832031 367.628906 351.792969 368.730469 352.730469 369.78125 L 365.335938 384.144531 C 365.523438 384.355469 365.5 384.683594 365.289062 384.871094 C 365.21875 384.964844 365.101562 385.011719 364.960938 385.011719 Z M 364.960938 385.011719 " fill-opacity="1" fill-rule="nonzero"/><path fill="#4d55f5" d="M 370.511719 377.398438 C 370.347656 377.398438 370.183594 377.328125 370.089844 377.164062 C 365.125 369.96875 359.054688 363.667969 352.050781 358.464844 C 351.816406 358.300781 351.769531 357.972656 351.933594 357.742188 C 352.097656 357.507812 352.425781 357.460938 352.660156 357.625 C 359.757812 362.894531 365.921875 369.265625 370.933594 376.578125 C 371.097656 376.8125 371.027344 377.140625 370.792969 377.304688 C 370.699219 377.375 370.605469 377.398438 370.511719 377.398438 Z M 370.511719 377.398438 " fill-opacity="1" fill-rule="nonzero"/><g clip-path="url(#155f9fe00b)"><path fill="#4d55f5" d="M 658.058594 619.375 C 657.964844 619.375 657.847656 619.351562 657.753906 619.28125 L 605.0625 581.277344 L 86.082031 581.277344 C 85.800781 581.277344 85.566406 581.042969 85.566406 580.761719 C 85.566406 580.480469 85.800781 580.246094 86.082031 580.246094 L 605.25 580.246094 C 605.367188 580.246094 605.460938 580.269531 605.554688 580.339844 L 658.386719 618.4375 C 658.621094 618.601562 658.667969 618.929688 658.503906 619.164062 C 658.386719 619.304688 658.222656 619.375 658.058594 619.375 Z M 658.058594 619.375 " fill-opacity="1" fill-rule="nonzero"/></g><path fill="#4d55f5" d="M 340.40625 333.796875 C 340.125 333.796875 339.890625 333.5625 339.890625 333.28125 L 339.890625 200.132812 C 339.890625 199.851562 340.125 199.617188 340.40625 199.617188 L 484.214844 199.617188 C 484.496094 199.617188 484.730469 199.851562 484.730469 200.132812 C 484.730469 200.414062 484.496094 200.648438 484.214844 200.648438 L 340.921875 200.648438 L 340.921875 333.28125 C 340.921875 333.5625 340.6875 333.796875 340.40625 333.796875 Z M 340.40625 333.796875 " fill-opacity="1" fill-rule="nonzero"/><path fill="#4d55f5" d="M 714.992188 359.777344 L 531.960938 359.777344 C 531.679688 359.777344 531.449219 359.542969 531.449219 359.261719 C 531.449219 358.980469 531.679688 358.746094 531.960938 358.746094 L 714.476562 358.746094 L 714.476562 341.222656 C 714.476562 340.941406 714.710938 340.707031 714.992188 340.707031 C 715.273438 340.707031 715.507812 340.941406 715.507812 341.222656 L 715.507812 359.261719 C 715.507812 359.542969 715.296875 359.777344 714.992188 359.777344 Z M 714.992188 359.777344 " fill-opacity="1" fill-rule="nonzero"/><path fill="#f6f6f6" d="M 615.769531 587.933594 L 605.8125 580.222656 L 605.8125 371.445312 L 615.769531 371.445312 Z M 615.769531 587.933594 " fill-opacity="1" fill-rule="nonzero"/><path fill="#4d55f5" d="M 615.769531 588.449219 C 615.652344 588.449219 615.535156 588.402344 615.464844 588.332031 L 605.507812 580.621094 C 605.390625 580.527344 605.296875 580.363281 605.296875 580.222656 L 605.296875 371.445312 C 605.296875 371.164062 605.53125 370.929688 605.8125 370.929688 L 615.769531 370.929688 C 616.050781 370.929688 616.285156 371.164062 616.285156 371.445312 L 616.285156 587.933594 C 616.285156 588.121094 616.167969 588.308594 616.003906 588.402344 C 615.910156 588.425781 615.839844 588.449219 615.769531 588.449219 Z M 606.328125 579.964844 L 615.253906 586.878906 L 615.253906 371.960938 L 606.328125 371.960938 Z M 606.328125 579.964844 " fill-opacity="1" fill-rule="nonzero"/><path fill="#f6f6f6" d="M 718.480469 371.445312 L 728.441406 371.445312 L 728.441406 618.859375 L 718.480469 618.859375 Z M 718.480469 371.445312 " fill-opacity="1" fill-rule="nonzero"/><g clip-path="url(#8eb3001d72)"><path fill="#4d55f5" d="M 728.417969 619.375 L 718.457031 619.375 C 718.179688 619.375 717.945312 619.140625 717.945312 618.859375 L 717.945312 371.445312 C 717.945312 371.164062 718.179688 370.929688 718.457031 370.929688 L 728.417969 370.929688 C 728.699219 370.929688 728.933594 371.164062 728.933594 371.445312 L 728.933594 618.859375 C 728.957031 619.140625 728.722656 619.375 728.417969 619.375 Z M 718.996094 618.34375 L 727.925781 618.34375 L 727.925781 371.960938 L 718.996094 371.960938 Z M 718.996094 618.34375 " fill-opacity="1" fill-rule="nonzero"/></g><path fill="#f6f6f6" d="M 615.769531 566.914062 L 718.480469 566.914062 L 718.480469 579.285156 L 615.769531 579.285156 Z M 615.769531 566.914062 " fill-opacity="1" fill-rule="nonzero"/><path fill="#4d55f5" d="M 718.480469 579.824219 L 615.769531 579.824219 C 615.488281 579.824219 615.253906 579.589844 615.253906 579.308594 L 615.253906 566.9375 C 615.253906 566.660156 615.488281 566.425781 615.769531 566.425781 L 718.480469 566.425781 C 718.761719 566.425781 718.996094 566.660156 718.996094 566.9375 L 718.996094 579.308594 C 718.996094 579.589844 718.761719 579.824219 718.480469 579.824219 Z M 616.285156 578.792969 L 717.96875 578.792969 L 717.96875 567.453125 L 616.285156 567.453125 Z M 616.285156 578.792969 " fill-opacity="1" fill-rule="nonzero"/><path fill="#f6f6f6" d="M 718.480469 537.886719 L 682.917969 537.886719 L 615.769531 566.914062 L 718.480469 566.914062 Z M 718.480469 537.886719 " fill-opacity="1" fill-rule="nonzero"/><path fill="#4d55f5" d="M 718.480469 567.429688 L 615.769531 567.429688 C 615.535156 567.429688 615.324219 567.265625 615.253906 567.007812 C 615.207031 566.777344 615.324219 566.519531 615.558594 566.425781 L 682.707031 537.394531 C 682.777344 537.371094 682.847656 537.347656 682.917969 537.347656 L 718.457031 537.347656 C 718.738281 537.347656 718.972656 537.582031 718.972656 537.863281 L 718.972656 566.890625 C 718.996094 567.195312 718.761719 567.429688 718.480469 567.429688 Z M 618.253906 566.402344 L 717.96875 566.402344 L 717.96875 538.402344 L 683.035156 538.402344 Z M 618.253906 566.402344 " fill-opacity="1" fill-rule="nonzero"/><path fill="#f6f6f6" d="M 615.769531 525.304688 L 718.480469 525.304688 L 718.480469 537.675781 L 615.769531 537.675781 Z M 615.769531 525.304688 " fill-opacity="1" fill-rule="nonzero"/><path fill="#4d55f5" d="M 718.480469 538.214844 L 615.769531 538.214844 C 615.488281 538.214844 615.253906 537.980469 615.253906 537.699219 L 615.253906 525.328125 C 615.253906 525.046875 615.488281 524.8125 615.769531 524.8125 L 718.480469 524.8125 C 718.761719 524.8125 718.996094 525.046875 718.996094 525.328125 L 718.996094 537.699219 C 718.996094 537.980469 718.761719 538.214844 718.480469 538.214844 Z M 616.285156 537.183594 L 717.96875 537.183594 L 717.96875 525.84375 L 616.285156 525.84375 Z M 616.285156 537.183594 " fill-opacity="1" fill-rule="nonzero"/><path fill="#f6f6f6" d="M 718.480469 496.277344 L 682.917969 496.277344 L 615.769531 525.304688 L 718.480469 525.304688 Z M 718.480469 496.277344 " fill-opacity="1" fill-rule="nonzero"/><path fill="#4d55f5" d="M 718.480469 525.820312 L 615.769531 525.820312 C 615.535156 525.820312 615.324219 525.65625 615.253906 525.398438 C 615.207031 525.164062 615.324219 524.90625 615.558594 524.8125 L 682.707031 495.785156 C 682.777344 495.761719 682.847656 495.738281 682.917969 495.738281 L 718.457031 495.738281 C 718.738281 495.738281 718.972656 495.972656 718.972656 496.253906 L 718.972656 525.28125 C 718.996094 525.585938 718.761719 525.820312 718.480469 525.820312 Z M 618.253906 524.789062 L 717.96875 524.789062 L 717.96875 496.792969 L 683.035156 496.792969 Z M 618.253906 524.789062 " fill-opacity="1" fill-rule="nonzero"/><path fill="#f6f6f6" d="M 615.769531 483.695312 L 718.480469 483.695312 L 718.480469 496.066406 L 615.769531 496.066406 Z M 615.769531 483.695312 " fill-opacity="1" fill-rule="nonzero"/><path fill="#4d55f5" d="M 718.480469 496.605469 L 615.769531 496.605469 C 615.488281 496.605469 615.253906 496.371094 615.253906 496.089844 L 615.253906 483.71875 C 615.253906 483.4375 615.488281 483.203125 615.769531 483.203125 L 718.480469 483.203125 C 718.761719 483.203125 718.996094 483.4375 718.996094 483.71875 L 718.996094 496.089844 C 718.996094 496.371094 718.761719 496.605469 718.480469 496.605469 Z M 616.285156 495.574219 L 717.96875 495.574219 L 717.96875 484.234375 L 616.285156 484.234375 Z M 616.285156 495.574219 " fill-opacity="1" fill-rule="nonzero"/><path fill="#f6f6f6" d="M 718.480469 454.667969 L 682.917969 454.667969 L 615.769531 483.695312 L 718.480469 483.695312 Z M 718.480469 454.667969 " fill-opacity="1" fill-rule="nonzero"/><path fill="#4d55f5" d="M 718.480469 484.210938 L 615.769531 484.210938 C 615.535156 484.210938 615.324219 484.046875 615.253906 483.789062 C 615.207031 483.554688 615.324219 483.296875 615.558594 483.203125 L 682.707031 454.175781 C 682.777344 454.152344 682.847656 454.128906 682.917969 454.128906 L 718.457031 454.128906 C 718.738281 454.128906 718.972656 454.363281 718.972656 454.644531 L 718.972656 483.671875 C 718.996094 483.976562 718.761719 484.210938 718.480469 484.210938 Z M 618.253906 483.179688 L 717.96875 483.179688 L 717.96875 455.183594 L 683.035156 455.183594 Z M 618.253906 483.179688 " fill-opacity="1" fill-rule="nonzero"/><path fill="#f6f6f6" d="M 615.769531 442.085938 L 718.480469 442.085938 L 718.480469 454.457031 L 615.769531 454.457031 Z M 615.769531 442.085938 " fill-opacity="1" fill-rule="nonzero"/><path fill="#4d55f5" d="M 718.480469 454.996094 L 615.769531 454.996094 C 615.488281 454.996094 615.253906 454.761719 615.253906 454.480469 L 615.253906 442.109375 C 615.253906 441.828125 615.488281 441.59375 615.769531 441.59375 L 718.480469 441.59375 C 718.761719 441.59375 718.996094 441.828125 718.996094 442.109375 L 718.996094 454.480469 C 718.996094 454.761719 718.761719 454.996094 718.480469 454.996094 Z M 616.285156 453.964844 L 717.96875 453.964844 L 717.96875 442.625 L 616.285156 442.625 Z M 616.285156 453.964844 " fill-opacity="1" fill-rule="nonzero"/><path fill="#f6f6f6" d="M 718.480469 413.054688 L 682.917969 413.054688 L 615.769531 442.085938 L 718.480469 442.085938 Z M 718.480469 413.054688 " fill-opacity="1" fill-rule="nonzero"/><path fill="#4d55f5" d="M 718.480469 442.601562 L 615.769531 442.601562 C 615.535156 442.601562 615.324219 442.4375 615.253906 442.179688 C 615.207031 441.945312 615.324219 441.6875 615.558594 441.59375 L 682.707031 412.566406 C 682.777344 412.542969 682.847656 412.519531 682.917969 412.519531 L 718.457031 412.519531 C 718.738281 412.519531 718.972656 412.753906 718.972656 413.03125 L 718.972656 442.0625 C 718.996094 442.367188 718.761719 442.601562 718.480469 442.601562 Z M 618.253906 441.570312 L 717.96875 441.570312 L 717.96875 413.570312 L 683.035156 413.570312 Z M 618.253906 441.570312 " fill-opacity="1" fill-rule="nonzero"/><path fill="#f6f6f6" d="M 615.769531 400.476562 L 718.480469 400.476562 L 718.480469 412.847656 L 615.769531 412.847656 Z M 615.769531 400.476562 " fill-opacity="1" fill-rule="nonzero"/><path fill="#4d55f5" d="M 718.480469 413.382812 L 615.769531 413.382812 C 615.488281 413.382812 615.253906 413.148438 615.253906 412.871094 L 615.253906 400.5 C 615.253906 400.21875 615.488281 399.984375 615.769531 399.984375 L 718.480469 399.984375 C 718.761719 399.984375 718.996094 400.21875 718.996094 400.5 L 718.996094 412.871094 C 718.996094 413.148438 718.761719 413.382812 718.480469 413.382812 Z M 616.285156 412.355469 L 717.96875 412.355469 L 717.96875 401.015625 L 616.285156 401.015625 Z M 616.285156 412.355469 " fill-opacity="1" fill-rule="nonzero"/><path fill="#f6f6f6" d="M 718.480469 371.445312 L 682.917969 371.445312 L 615.769531 400.476562 L 718.480469 400.476562 Z M 718.480469 371.445312 " fill-opacity="1" fill-rule="nonzero"/><path fill="#4d55f5" d="M 718.480469 400.992188 L 615.769531 400.992188 C 615.535156 400.992188 615.324219 400.828125 615.253906 400.570312 C 615.207031 400.335938 615.324219 400.078125 615.558594 399.984375 L 682.707031 370.953125 C 682.777344 370.929688 682.847656 370.90625 682.917969 370.90625 L 718.457031 370.90625 C 718.738281 370.90625 718.972656 371.140625 718.972656 371.421875 L 718.972656 400.453125 C 718.996094 400.757812 718.761719 400.992188 718.480469 400.992188 Z M 618.253906 399.960938 L 717.96875 399.960938 L 717.96875 371.960938 L 683.035156 371.960938 Z M 618.253906 399.960938 " fill-opacity="1" fill-rule="nonzero"/><path fill="#affb53" d="M 230.96875 589.101562 L 167.992188 589.101562 C 163.28125 589.101562 159.460938 592.921875 159.460938 597.632812 L 159.460938 604.589844 C 159.460938 609.300781 163.28125 613.117188 167.992188 613.117188 L 230.96875 613.117188 C 235.675781 613.117188 239.496094 609.300781 239.496094 604.589844 L 239.496094 597.632812 C 239.496094 592.921875 235.675781 589.101562 230.96875 589.101562 Z M 230.96875 589.101562 " fill-opacity="1" fill-rule="nonzero"/><path fill="#132644" d="M 202.125 565.089844 L 142.617188 565.089844 C 136.945312 565.089844 132.355469 569.679688 132.355469 575.351562 L 132.355469 578.863281 C 132.355469 584.535156 136.945312 589.125 142.617188 589.125 L 202.125 589.125 C 207.796875 589.125 212.390625 584.535156 212.390625 578.863281 L 212.390625 575.351562 C 212.390625 569.679688 207.796875 565.089844 202.125 565.089844 Z M 202.125 565.089844 " fill-opacity="1" fill-rule="nonzero"/><path fill="#f6f6f6" d="M 502.121094 518.082031 L 611.238281 432.003906 L 640.636719 469.269531 L 531.523438 555.351562 Z M 502.121094 518.082031 " fill-opacity="1" fill-rule="nonzero"/><path fill="#4d55f5" d="M 531.515625 555.902344 C 531.492188 555.902344 531.46875 555.902344 531.445312 555.902344 C 531.304688 555.878906 531.191406 555.8125 531.097656 555.71875 L 501.691406 518.441406 C 501.503906 518.207031 501.550781 517.902344 501.785156 517.714844 L 610.894531 431.636719 C 611.128906 431.449219 611.433594 431.496094 611.621094 431.730469 L 641.027344 469.003906 C 641.121094 469.121094 641.144531 469.238281 641.144531 469.378906 C 641.144531 469.519531 641.050781 469.636719 640.957031 469.730469 L 531.84375 555.8125 C 531.75 555.855469 531.632812 555.902344 531.515625 555.902344 Z M 502.839844 518.207031 L 531.609375 554.664062 L 639.925781 469.214844 L 611.152344 432.761719 Z M 502.839844 518.207031 " fill-opacity="1" fill-rule="nonzero"/><path fill="#affb53" d="M 582.25 461.480469 L 607.140625 441.847656 L 630.109375 470.964844 L 605.222656 490.597656 Z M 582.25 461.480469 " fill-opacity="1" fill-rule="nonzero"/><path fill="#affb53" d="M 551.78125 485.539062 L 576.667969 465.902344 L 599.640625 495.023438 L 574.75 514.65625 Z M 551.78125 485.539062 " fill-opacity="1" fill-rule="nonzero"/><path fill="#affb53" d="M 521.292969 509.578125 L 546.183594 489.945312 L 569.152344 519.0625 L 544.265625 538.695312 Z M 521.292969 509.578125 " fill-opacity="1" fill-rule="nonzero"/><path fill="#f6f6f6" d="M 516.035156 528.070312 L 645.59375 477.765625 L 662.773438 522.015625 L 533.214844 572.320312 Z M 516.035156 528.070312 " fill-opacity="1" fill-rule="nonzero"/><path fill="#4d55f5" d="M 533.203125 572.84375 C 533.132812 572.84375 533.0625 572.820312 532.992188 572.796875 C 532.875 572.75 532.757812 572.632812 532.710938 572.515625 L 515.539062 528.257812 C 515.445312 528 515.5625 527.695312 515.84375 527.601562 L 645.40625 477.300781 C 645.664062 477.207031 645.96875 477.324219 646.0625 477.605469 L 663.238281 521.863281 C 663.285156 521.980469 663.285156 522.144531 663.238281 522.261719 C 663.191406 522.378906 663.074219 522.496094 662.957031 522.542969 L 533.390625 572.84375 C 533.320312 572.84375 533.273438 572.84375 533.203125 572.84375 Z M 516.6875 528.375 L 533.484375 571.671875 L 662.066406 521.746094 L 645.265625 478.449219 Z M 516.6875 528.375 " fill-opacity="1" fill-rule="nonzero"/><path fill="#affb53" d="M 609.234375 497.453125 L 638.785156 485.980469 L 652.210938 520.554688 L 622.660156 532.027344 Z M 609.234375 497.453125 " fill-opacity="1" fill-rule="nonzero"/><path fill="#affb53" d="M 573.039062 511.511719 L 602.589844 500.039062 L 616.011719 534.613281 L 586.460938 546.085938 Z M 573.039062 511.511719 " fill-opacity="1" fill-rule="nonzero"/><path fill="#affb53" d="M 536.839844 525.574219 L 566.390625 514.097656 L 579.816406 548.671875 L 550.265625 560.148438 Z M 536.839844 525.574219 " fill-opacity="1" fill-rule="nonzero"/><path fill="#f6f6f6" d="M 523.785156 532.078125 L 662.769531 532.078125 L 662.769531 579.542969 L 523.785156 579.542969 Z M 523.785156 532.078125 " fill-opacity="1" fill-rule="nonzero"/><path fill="#4d55f5" d="M 662.746094 580.058594 L 523.761719 580.058594 C 523.480469 580.058594 523.246094 579.824219 523.246094 579.542969 L 523.246094 532.078125 C 523.246094 531.796875 523.480469 531.5625 523.761719 531.5625 L 662.746094 531.5625 C 663.027344 531.5625 663.261719 531.796875 663.261719 532.078125 L 663.261719 579.542969 C 663.261719 579.824219 663.050781 580.058594 662.746094 580.058594 Z M 524.300781 579.027344 L 662.253906 579.027344 L 662.253906 532.59375 L 524.300781 532.59375 Z M 524.300781 579.027344 " fill-opacity="1" fill-rule="nonzero"/><path fill="#affb53" d="M 621.742188 537.253906 L 653.441406 537.253906 L 653.441406 574.34375 L 621.742188 574.34375 Z M 621.742188 537.253906 " fill-opacity="1" fill-rule="nonzero"/><path fill="#affb53" d="M 582.898438 537.253906 L 614.597656 537.253906 L 614.597656 574.34375 L 582.898438 574.34375 Z M 582.898438 537.253906 " fill-opacity="1" fill-rule="nonzero"/><path fill="#affb53" d="M 544.074219 537.253906 L 575.773438 537.253906 L 575.773438 574.34375 L 544.074219 574.34375 Z M 544.074219 537.253906 " fill-opacity="1" fill-rule="nonzero"/><path fill="#f6f6f6" d="M 624.15625 563.121094 L 544.355469 563.121094 L 544.355469 585.261719 L 624.15625 585.261719 C 630.273438 585.261719 635.238281 580.292969 635.238281 574.179688 C 635.238281 568.085938 630.273438 563.121094 624.15625 563.121094 Z M 624.15625 563.121094 " fill-opacity="1" fill-rule="nonzero"/><path fill="#4d55f5" d="M 624.15625 585.777344 C 623.875 585.777344 623.640625 585.542969 623.640625 585.261719 C 623.640625 584.980469 623.875 584.746094 624.15625 584.746094 C 629.96875 584.746094 634.722656 580.011719 634.722656 574.179688 C 634.722656 568.34375 629.992188 563.613281 624.15625 563.613281 L 544.355469 563.613281 C 544.074219 563.613281 543.839844 563.378906 543.839844 563.097656 C 543.839844 562.816406 544.074219 562.582031 544.355469 562.582031 L 624.15625 562.582031 C 630.550781 562.582031 635.753906 567.78125 635.753906 574.179688 C 635.753906 580.597656 630.550781 585.777344 624.15625 585.777344 Z M 624.15625 585.777344 " fill-opacity="1" fill-rule="nonzero"/><path fill="#f6f6f6" d="M 411.042969 585.261719 L 541.710938 585.261719 C 547.777344 585.261719 552.699219 580.339844 552.699219 574.273438 C 552.699219 567.476562 546.582031 562.300781 539.882812 563.449219 Z M 411.042969 585.261719 " fill-opacity="1" fill-rule="nonzero"/><path fill="#4d55f5" d="M 411.042969 585.777344 C 410.785156 585.777344 410.574219 585.589844 410.527344 585.355469 C 410.484375 585.074219 410.667969 584.816406 410.949219 584.769531 L 539.789062 562.957031 C 543.136719 562.394531 546.535156 563.332031 549.136719 565.511719 C 551.738281 567.6875 553.214844 570.898438 553.214844 574.296875 C 553.214844 580.644531 548.058594 585.800781 541.710938 585.800781 C 541.429688 585.800781 541.195312 585.566406 541.195312 585.285156 C 541.195312 585.003906 541.429688 584.769531 541.710938 584.769531 C 547.472656 584.769531 552.183594 580.082031 552.183594 574.296875 C 552.183594 571.203125 550.824219 568.296875 548.480469 566.308594 C 546.113281 564.316406 543.019531 563.472656 539.976562 563.988281 L 411.136719 585.800781 C 411.113281 585.777344 411.066406 585.777344 411.042969 585.777344 Z M 411.042969 585.777344 " fill-opacity="1" fill-rule="nonzero"/><path fill="#4d55f5" d="M 411.042969 585.777344 C 410.785156 585.777344 410.550781 585.566406 410.527344 585.308594 C 410.507812 585.027344 410.714844 584.769531 410.996094 584.746094 L 537.9375 573.757812 C 538.21875 573.734375 538.476562 573.945312 538.5 574.226562 C 538.523438 574.507812 538.3125 574.765625 538.03125 574.789062 L 411.089844 585.777344 C 411.089844 585.777344 411.066406 585.777344 411.042969 585.777344 Z M 411.042969 585.777344 " fill-opacity="1" fill-rule="nonzero"/><path fill="#132644" d="M 621.015625 618.859375 L 411.042969 618.859375 L 411.042969 585.261719 L 621.015625 585.261719 C 628.867188 585.261719 635.238281 591.632812 635.238281 599.484375 L 635.238281 604.636719 C 635.238281 612.484375 628.867188 618.859375 621.015625 618.859375 Z M 621.015625 618.859375 " fill-opacity="1" fill-rule="nonzero"/><path fill="#4d55f5" d="M 512.1875 600.324219 L 413.597656 600.324219 C 413.316406 600.324219 413.082031 600.089844 413.082031 599.8125 C 413.082031 599.53125 413.316406 599.296875 413.597656 599.296875 L 512.1875 599.296875 C 512.46875 599.296875 512.703125 599.53125 512.703125 599.8125 C 512.703125 600.089844 512.46875 600.324219 512.1875 600.324219 Z M 512.1875 600.324219 " fill-opacity="1" fill-rule="nonzero"/><path fill="#4d55f5" d="M 505.910156 617.710938 C 505.628906 617.710938 505.394531 617.476562 505.394531 617.195312 C 505.394531 616.914062 505.628906 616.679688 505.910156 616.679688 C 512.539062 616.679688 517.953125 611.265625 517.953125 604.636719 C 517.953125 598.007812 512.539062 592.59375 505.910156 592.59375 C 505.628906 592.59375 505.394531 592.359375 505.394531 592.078125 C 505.394531 591.796875 505.628906 591.5625 505.910156 591.5625 C 513.125 591.5625 518.984375 597.421875 518.984375 604.636719 C 518.984375 611.851562 513.125 617.710938 505.910156 617.710938 Z M 505.910156 617.710938 " fill-opacity="1" fill-rule="nonzero"/><path fill="#4d55f5" d="M 512.1875 605.152344 L 413.597656 605.152344 C 413.316406 605.152344 413.082031 604.917969 413.082031 604.636719 C 413.082031 604.355469 413.316406 604.121094 413.597656 604.121094 L 512.1875 604.121094 C 512.46875 604.121094 512.703125 604.355469 512.703125 604.636719 C 512.703125 604.941406 512.46875 605.152344 512.1875 605.152344 Z M 512.1875 605.152344 " fill-opacity="1" fill-rule="nonzero"/></svg>