<?xml version="1.0" encoding="UTF-8"?>
<svg xmlns="http://www.w3.org/2000/svg" xmlns:xlink="http://www.w3.org/1999/xlink" width="3872.98" height="3872.98" viewBox="0 0 3872.98 3872.98">
<defs>
<clipPath id="clip-0">
<path clip-rule="nonzero" d="M 717 697 L 3156 697 L 3156 3176 L 717 3176 Z M 717 697 "/>
</clipPath>
<clipPath id="clip-1">
<path clip-rule="evenodd" d="M 1085.488281 1252.851562 C 1057.128906 1252.851562 1041.050781 1216.871094 1061.941406 1195.988281 L 1128.949219 1129.011719 L 1128.949219 995.589844 C 1128.949219 952.609375 1195.558594 952.609375 1195.558594 995.589844 L 1195.558594 1142.800781 C 1195.558594 1151.640625 1192.058594 1160.109375 1185.800781 1166.359375 L 1109.039062 1243.121094 C 1102.539062 1249.609375 1094.019531 1252.851562 1085.488281 1252.851562 Z M 1129.699219 765.230469 C 947.207031 781.179688 801.414062 927 785.449219 1109.488281 L 900.253906 1109.488281 C 943.226562 1109.488281 943.246094 1176.089844 900.253906 1176.089844 L 785.449219 1176.089844 C 801.414062 1358.570312 947.21875 1504.378906 1129.699219 1520.339844 L 1129.699219 1405.539062 C 1129.699219 1362.558594 1196.308594 1362.558594 1196.308594 1405.539062 L 1196.308594 1520.339844 C 1378.789062 1504.371094 1524.621094 1358.570312 1540.589844 1176.089844 L 1425.761719 1176.089844 C 1382.78125 1176.089844 1382.78125 1109.488281 1425.761719 1109.488281 L 1540.589844 1109.488281 C 1524.621094 927 1378.800781 781.191406 1196.308594 765.230469 L 1196.308594 880.03125 C 1196.308594 923 1129.699219 923.03125 1129.699219 880.03125 Z M 1163 1588.441406 C 1408.761719 1588.441406 1608.679688 1388.511719 1608.679688 1142.789062 C 1608.679688 897.058594 1408.761719 697.140625 1163 697.140625 C 917.285156 697.140625 717.359375 897.058594 717.359375 1142.789062 C 717.359375 1388.511719 917.265625 1588.441406 1163 1588.441406 Z M 2734.339844 2611.460938 C 2668.628906 2611.460938 2615.121094 2664.960938 2615.121094 2730.699219 C 2615.121094 2796.429688 2668.609375 2849.921875 2734.339844 2849.921875 C 2800.078125 2849.921875 2853.558594 2796.429688 2853.558594 2730.699219 C 2853.558594 2664.960938 2800.078125 2611.460938 2734.339844 2611.460938 Z M 2734.339844 2916.519531 C 2836.808594 2916.519531 2920.160156 2833.171875 2920.160156 2730.699219 C 2920.160156 2628.21875 2836.808594 2544.898438 2734.339844 2544.898438 C 2631.871094 2544.898438 2548.539062 2628.21875 2548.539062 2730.699219 C 2548.539062 2833.171875 2631.871094 2916.519531 2734.339844 2916.519531 Z M 2157.710938 2044.210938 L 2288.039062 2111.320312 L 2295.070312 1942.519531 Z M 1894.691406 1942.5 L 1901.710938 2111.300781 L 2032.03125 2044.210938 Z M 2491.289062 2730.238281 C 2492.570312 2825.738281 2526.539062 2778.53125 2389.371094 2890.339844 L 2423.589844 2949.589844 L 2538.648438 2905.839844 C 2570.820312 2893.628906 2589.039062 2938.71875 2658.070312 2961.488281 C 2669.871094 2965.390625 2678.511719 2975.539062 2680.5 2987.789062 L 2700.121094 3109.230469 L 2768.539062 3109.230469 L 2788.160156 2987.808594 C 2793.648438 2953.890625 2841.5 2960.699219 2896.011719 2912.121094 C 2905.308594 2903.828125 2918.46875 2901.488281 2930.011719 2905.859375 L 3045.089844 2949.609375 L 3079.308594 2890.339844 C 2939.640625 2776.558594 2977.390625 2826.019531 2977.390625 2730.699219 C 2977.390625 2635.410156 2939.660156 2684.878906 3079.308594 2571.058594 L 3045.089844 2511.800781 L 2930.050781 2555.550781 C 2897.878906 2567.769531 2879.328125 2522.539062 2810.621094 2499.921875 C 2798.800781 2496.039062 2790.148438 2485.859375 2788.160156 2473.601562 L 2768.539062 2352.160156 L 2700.140625 2352.140625 L 2680.519531 2473.589844 C 2675.050781 2507.488281 2627.261719 2500.671875 2572.671875 2549.25 C 2563.351562 2557.539062 2550.210938 2559.910156 2538.671875 2555.53125 L 2423.589844 2511.761719 L 2389.371094 2571.058594 C 2528.699219 2684.601562 2491.449219 2635.648438 2491.289062 2730.238281 Z M 2426.46875 2697.371094 C 2426.78125 2694.289062 2427.148438 2691.21875 2427.570312 2688.171875 L 2325.289062 2604.800781 C 2312.621094 2594.480469 2309.308594 2576.488281 2317.488281 2562.351562 L 2380.03125 2453.96875 C 2388.230469 2439.800781 2405.488281 2433.710938 2420.710938 2439.488281 L 2544.109375 2486.390625 C 2566.699219 2468.738281 2591.390625 2454.5 2617.839844 2443.78125 C 2643.101562 2287.628906 2628.300781 2285.601562 2699.570312 2285.601562 C 2684.539062 2085.140625 2551.460938 1937.058594 2363.070312 1910.921875 L 2352.480469 2166.160156 C 2351.449219 2190.289062 2325 2205.230469 2303.921875 2194.371094 L 2094.890625 2086.738281 C 2064.789062 2102.21875 1888.71875 2198.070312 1870.601562 2198.070312 C 1853.121094 2198.070312 1838.050781 2183.789062 1837.308594 2166.140625 L 1826.710938 1911 C 1634.660156 1938.980469 1488.710938 2104.640625 1488.710938 2302.101562 L 1488.710938 2697.371094 Z M 2220.789062 1749.570312 C 2142.640625 1784.761719 2045.839844 1786.789062 1966.058594 1754.628906 L 1902.238281 1865.191406 L 2094.910156 2007.839844 L 2287.550781 1865.210938 Z M 1851.25 1129.941406 C 1851.269531 1129.941406 1827.679688 1157.910156 1823.480469 1224.96875 C 1960.070312 1088.019531 2222.03125 1082.859375 2355.691406 1224.398438 C 2362.980469 1084.988281 2331.691406 985.679688 2227.800781 985.679688 C 2186.609375 985.679688 2159.25 1009.128906 2142.109375 975.929688 C 2048.238281 793.96875 1914.25 983.660156 1790.78125 970.589844 C 1800.738281 1074.191406 1856.109375 1068.851562 1860.21875 1102.921875 C 1861.421875 1112.839844 1858.128906 1122.730469 1851.25 1129.941406 Z M 1828.960938 1327.300781 C 1828.960938 1480.699219 1812.960938 1592.441406 1969.191406 1682.578125 C 2117.980469 1768.421875 2345.960938 1661.621094 2345.960938 1453.949219 L 2345.960938 1326.359375 C 2296.671875 1223.230469 2183.160156 1186.25 2092.109375 1186.25 C 1977.25 1186.25 1877.191406 1240.101562 1828.960938 1327.300781 Z M 2796.890625 3175.851562 L 2671.761719 3175.851562 C 2655.429688 3175.851562 2641.5 3164 2638.898438 3147.878906 L 2617.820312 3017.648438 C 2591.351562 3006.941406 2566.679688 2992.648438 2544.109375 2975.058594 L 2420.710938 3021.96875 C 2405.46875 3027.761719 2388.210938 3021.648438 2380.03125 3007.488281 L 2317.488281 2899.101562 C 2309.308594 2884.960938 2312.640625 2866.96875 2325.289062 2856.648438 L 2427.570312 2773.269531 C 2427.140625 2770.191406 2426.761719 2767.078125 2426.429688 2763.988281 L 1455.410156 2763.988281 C 1437.019531 2763.988281 1422.109375 2749.078125 1422.109375 2730.679688 L 1422.109375 2302.101562 C 1422.109375 2064.121094 1603.519531 1865.699219 1838.398438 1842.539062 L 1907.121094 1723.519531 C 1819.898438 1665.308594 1762.359375 1566.210938 1762.359375 1453.949219 L 1762.359375 1321.578125 C 1745.789062 1214.648438 1765.511719 1148.839844 1783 1114.191406 C 1709.578125 1042.320312 1723.730469 919.578125 1724.441406 913.859375 C 1727.941406 885.761719 1764.25 874.75 1782.761719 896.269531 C 1831.621094 953.050781 2053.070312 704.738281 2188.339844 922.5 C 2251.910156 911.511719 2321.78125 930.148438 2363.511719 978.570312 C 2419.871094 1043.960938 2436.390625 1159.328125 2412.558594 1321.421875 L 2412.558594 1453.949219 C 2412.558594 1561.609375 2359.628906 1657.148438 2278.390625 1716.128906 L 2351.390625 1842.570312 C 2580.980469 1864.800781 2750.058594 2046.25 2766.289062 2285.578125 C 2840.679688 2285.578125 2825.191406 2285.300781 2850.800781 2443.78125 C 2877.261719 2454.480469 2901.960938 2468.761719 2924.558594 2486.390625 L 3047.910156 2439.488281 C 3063.21875 2433.710938 3080.429688 2439.820312 3088.609375 2453.949219 L 3151.148438 2562.328125 C 3159.328125 2576.46875 3156.019531 2594.460938 3143.351562 2604.78125 L 3041.070312 2688.171875 C 3044.960938 2716.320312 3044.921875 2745.140625 3041.070312 2773.269531 L 3143.351562 2856.609375 C 3156.019531 2866.941406 3159.328125 2884.941406 3151.148438 2899.078125 L 3088.609375 3007.488281 C 3080.429688 3021.648438 3063.21875 3027.761719 3047.929688 3021.949219 L 2924.53125 2975.039062 C 2901.941406 2992.691406 2877.28125 3006.941406 2850.800781 3017.671875 L 2829.761719 3147.839844 C 2827.179688 3164 2813.238281 3175.851562 2796.890625 3175.851562 "/>
</clipPath>
<linearGradient id="linear-pattern-0" gradientUnits="userSpaceOnUse" x1="0.000000000000000056" y1="0" x2="1.003028" y2="0" gradientTransform="matrix(2434.6, 0, 0, 2434.6, 717.359, 1936.5)">
<stop offset="0" stop-color="rgb(94.508362%, 95.684814%, 98.03772%)" stop-opacity="1"/>
<stop offset="0.0078125" stop-color="rgb(94.314575%, 95.550537%, 97.976685%)" stop-opacity="1"/>
<stop offset="0.015625" stop-color="rgb(93.928528%, 95.283508%, 97.853088%)" stop-opacity="1"/>
<stop offset="0.0234375" stop-color="rgb(93.540955%, 95.016479%, 97.731018%)" stop-opacity="1"/>
<stop offset="0.03125" stop-color="rgb(93.153381%, 94.749451%, 97.607422%)" stop-opacity="1"/>
<stop offset="0.0390625" stop-color="rgb(92.765808%, 94.482422%, 97.485352%)" stop-opacity="1"/>
<stop offset="0.046875" stop-color="rgb(92.379761%, 94.213867%, 97.361755%)" stop-opacity="1"/>
<stop offset="0.0546875" stop-color="rgb(91.992188%, 93.946838%, 97.239685%)" stop-opacity="1"/>
<stop offset="0.0625" stop-color="rgb(91.604614%, 93.67981%, 97.116089%)" stop-opacity="1"/>
<stop offset="0.0703125" stop-color="rgb(91.217041%, 93.412781%, 96.992493%)" stop-opacity="1"/>
<stop offset="0.078125" stop-color="rgb(90.830994%, 93.145752%, 96.870422%)" stop-opacity="1"/>
<stop offset="0.0859375" stop-color="rgb(90.44342%, 92.877197%, 96.746826%)" stop-opacity="1"/>
<stop offset="0.09375" stop-color="rgb(90.055847%, 92.610168%, 96.624756%)" stop-opacity="1"/>
<stop offset="0.101562" stop-color="rgb(89.668274%, 92.34314%, 96.50116%)" stop-opacity="1"/>
<stop offset="0.109375" stop-color="rgb(89.282227%, 92.076111%, 96.379089%)" stop-opacity="1"/>
<stop offset="0.117187" stop-color="rgb(88.894653%, 91.809082%, 96.255493%)" stop-opacity="1"/>
<stop offset="0.125" stop-color="rgb(88.50708%, 91.540527%, 96.133423%)" stop-opacity="1"/>
<stop offset="0.132812" stop-color="rgb(88.119507%, 91.273499%, 96.009827%)" stop-opacity="1"/>
<stop offset="0.140625" stop-color="rgb(87.733459%, 91.00647%, 95.88623%)" stop-opacity="1"/>
<stop offset="0.148438" stop-color="rgb(87.345886%, 90.739441%, 95.76416%)" stop-opacity="1"/>
<stop offset="0.15625" stop-color="rgb(86.958313%, 90.470886%, 95.640564%)" stop-opacity="1"/>
<stop offset="0.164062" stop-color="rgb(86.57074%, 90.203857%, 95.518494%)" stop-opacity="1"/>
<stop offset="0.171875" stop-color="rgb(86.184692%, 89.936829%, 95.394897%)" stop-opacity="1"/>
<stop offset="0.179687" stop-color="rgb(85.797119%, 89.6698%, 95.272827%)" stop-opacity="1"/>
<stop offset="0.1875" stop-color="rgb(85.409546%, 89.402771%, 95.149231%)" stop-opacity="1"/>
<stop offset="0.195312" stop-color="rgb(85.021973%, 89.134216%, 95.027161%)" stop-opacity="1"/>
<stop offset="0.203125" stop-color="rgb(84.635925%, 88.867188%, 94.903564%)" stop-opacity="1"/>
<stop offset="0.210937" stop-color="rgb(84.248352%, 88.600159%, 94.779968%)" stop-opacity="1"/>
<stop offset="0.21875" stop-color="rgb(83.860779%, 88.33313%, 94.657898%)" stop-opacity="1"/>
<stop offset="0.226562" stop-color="rgb(83.473206%, 88.066101%, 94.534302%)" stop-opacity="1"/>
<stop offset="0.234375" stop-color="rgb(83.087158%, 87.797546%, 94.412231%)" stop-opacity="1"/>
<stop offset="0.242187" stop-color="rgb(82.699585%, 87.530518%, 94.288635%)" stop-opacity="1"/>
<stop offset="0.25" stop-color="rgb(82.312012%, 87.263489%, 94.166565%)" stop-opacity="1"/>
<stop offset="0.257812" stop-color="rgb(81.924438%, 86.99646%, 94.042969%)" stop-opacity="1"/>
<stop offset="0.265625" stop-color="rgb(81.538391%, 86.727905%, 93.920898%)" stop-opacity="1"/>
<stop offset="0.273437" stop-color="rgb(81.150818%, 86.460876%, 93.797302%)" stop-opacity="1"/>
<stop offset="0.28125" stop-color="rgb(80.763245%, 86.193848%, 93.673706%)" stop-opacity="1"/>
<stop offset="0.289062" stop-color="rgb(80.375671%, 85.926819%, 93.551636%)" stop-opacity="1"/>
<stop offset="0.296875" stop-color="rgb(79.989624%, 85.65979%, 93.42804%)" stop-opacity="1"/>
<stop offset="0.304687" stop-color="rgb(79.602051%, 85.391235%, 93.305969%)" stop-opacity="1"/>
<stop offset="0.3125" stop-color="rgb(79.214478%, 85.124207%, 93.182373%)" stop-opacity="1"/>
<stop offset="0.320312" stop-color="rgb(78.826904%, 84.857178%, 93.060303%)" stop-opacity="1"/>
<stop offset="0.328125" stop-color="rgb(78.440857%, 84.590149%, 92.936707%)" stop-opacity="1"/>
<stop offset="0.335937" stop-color="rgb(78.053284%, 84.32312%, 92.814636%)" stop-opacity="1"/>
<stop offset="0.34375" stop-color="rgb(77.66571%, 84.054565%, 92.69104%)" stop-opacity="1"/>
<stop offset="0.351562" stop-color="rgb(77.278137%, 83.787537%, 92.567444%)" stop-opacity="1"/>
<stop offset="0.359375" stop-color="rgb(76.890564%, 83.520508%, 92.445374%)" stop-opacity="1"/>
<stop offset="0.367187" stop-color="rgb(76.504517%, 83.253479%, 92.321777%)" stop-opacity="1"/>
<stop offset="0.375" stop-color="rgb(76.116943%, 82.98645%, 92.199707%)" stop-opacity="1"/>
<stop offset="0.382812" stop-color="rgb(75.72937%, 82.717896%, 92.076111%)" stop-opacity="1"/>
<stop offset="0.390625" stop-color="rgb(75.341797%, 82.450867%, 91.954041%)" stop-opacity="1"/>
<stop offset="0.398438" stop-color="rgb(74.95575%, 82.183838%, 91.830444%)" stop-opacity="1"/>
<stop offset="0.40625" stop-color="rgb(74.568176%, 81.916809%, 91.708374%)" stop-opacity="1"/>
<stop offset="0.414062" stop-color="rgb(74.180603%, 81.648254%, 91.584778%)" stop-opacity="1"/>
<stop offset="0.421875" stop-color="rgb(73.79303%, 81.381226%, 91.461182%)" stop-opacity="1"/>
<stop offset="0.429688" stop-color="rgb(73.406982%, 81.114197%, 91.339111%)" stop-opacity="1"/>
<stop offset="0.4375" stop-color="rgb(73.019409%, 80.847168%, 91.215515%)" stop-opacity="1"/>
<stop offset="0.445312" stop-color="rgb(72.631836%, 80.580139%, 91.093445%)" stop-opacity="1"/>
<stop offset="0.453125" stop-color="rgb(72.244263%, 80.311584%, 90.969849%)" stop-opacity="1"/>
<stop offset="0.460937" stop-color="rgb(71.858215%, 80.044556%, 90.847778%)" stop-opacity="1"/>
<stop offset="0.46875" stop-color="rgb(71.470642%, 79.777527%, 90.724182%)" stop-opacity="1"/>
<stop offset="0.476562" stop-color="rgb(71.083069%, 79.510498%, 90.600586%)" stop-opacity="1"/>
<stop offset="0.484375" stop-color="rgb(70.695496%, 79.243469%, 90.478516%)" stop-opacity="1"/>
<stop offset="0.492187" stop-color="rgb(70.309448%, 78.974915%, 90.354919%)" stop-opacity="1"/>
<stop offset="0.5" stop-color="rgb(69.921875%, 78.707886%, 90.232849%)" stop-opacity="1"/>
<stop offset="0.507812" stop-color="rgb(69.534302%, 78.440857%, 90.109253%)" stop-opacity="1"/>
<stop offset="0.515625" stop-color="rgb(69.146729%, 78.173828%, 89.987183%)" stop-opacity="1"/>
<stop offset="0.523438" stop-color="rgb(68.760681%, 77.906799%, 89.863586%)" stop-opacity="1"/>
<stop offset="0.53125" stop-color="rgb(68.373108%, 77.638245%, 89.741516%)" stop-opacity="1"/>
<stop offset="0.539062" stop-color="rgb(67.985535%, 77.371216%, 89.61792%)" stop-opacity="1"/>
<stop offset="0.546875" stop-color="rgb(67.597961%, 77.104187%, 89.494324%)" stop-opacity="1"/>
<stop offset="0.554688" stop-color="rgb(67.211914%, 76.837158%, 89.372253%)" stop-opacity="1"/>
<stop offset="0.5625" stop-color="rgb(66.824341%, 76.568604%, 89.248657%)" stop-opacity="1"/>
<stop offset="0.570312" stop-color="rgb(66.436768%, 76.301575%, 89.126587%)" stop-opacity="1"/>
<stop offset="0.578125" stop-color="rgb(66.049194%, 76.034546%, 89.002991%)" stop-opacity="1"/>
<stop offset="0.585938" stop-color="rgb(65.663147%, 75.767517%, 88.88092%)" stop-opacity="1"/>
<stop offset="0.59375" stop-color="rgb(65.275574%, 75.500488%, 88.757324%)" stop-opacity="1"/>
<stop offset="0.601562" stop-color="rgb(64.888%, 75.231934%, 88.635254%)" stop-opacity="1"/>
<stop offset="0.609375" stop-color="rgb(64.500427%, 74.964905%, 88.511658%)" stop-opacity="1"/>
<stop offset="0.617188" stop-color="rgb(64.11438%, 74.697876%, 88.388062%)" stop-opacity="1"/>
<stop offset="0.625" stop-color="rgb(63.726807%, 74.430847%, 88.265991%)" stop-opacity="1"/>
<stop offset="0.632812" stop-color="rgb(63.339233%, 74.163818%, 88.142395%)" stop-opacity="1"/>
<stop offset="0.640625" stop-color="rgb(62.95166%, 73.895264%, 88.020325%)" stop-opacity="1"/>
<stop offset="0.648438" stop-color="rgb(62.565613%, 73.628235%, 87.896729%)" stop-opacity="1"/>
<stop offset="0.65625" stop-color="rgb(62.17804%, 73.361206%, 87.774658%)" stop-opacity="1"/>
<stop offset="0.664062" stop-color="rgb(61.790466%, 73.094177%, 87.651062%)" stop-opacity="1"/>
<stop offset="0.671875" stop-color="rgb(61.402893%, 72.825623%, 87.528992%)" stop-opacity="1"/>
<stop offset="0.679688" stop-color="rgb(61.016846%, 72.558594%, 87.405396%)" stop-opacity="1"/>
<stop offset="0.6875" stop-color="rgb(60.629272%, 72.291565%, 87.281799%)" stop-opacity="1"/>
<stop offset="0.695312" stop-color="rgb(60.241699%, 72.024536%, 87.159729%)" stop-opacity="1"/>
<stop offset="0.703125" stop-color="rgb(59.854126%, 71.757507%, 87.036133%)" stop-opacity="1"/>
<stop offset="0.710938" stop-color="rgb(59.468079%, 71.488953%, 86.914062%)" stop-opacity="1"/>
<stop offset="0.71875" stop-color="rgb(59.080505%, 71.221924%, 86.790466%)" stop-opacity="1"/>
<stop offset="0.726562" stop-color="rgb(58.692932%, 70.954895%, 86.668396%)" stop-opacity="1"/>
<stop offset="0.734375" stop-color="rgb(58.305359%, 70.687866%, 86.5448%)" stop-opacity="1"/>
<stop offset="0.742188" stop-color="rgb(57.919312%, 70.420837%, 86.422729%)" stop-opacity="1"/>
<stop offset="0.75" stop-color="rgb(57.531738%, 70.152283%, 86.299133%)" stop-opacity="1"/>
<stop offset="0.757812" stop-color="rgb(57.144165%, 69.885254%, 86.175537%)" stop-opacity="1"/>
<stop offset="0.765625" stop-color="rgb(56.756592%, 69.618225%, 86.053467%)" stop-opacity="1"/>
<stop offset="0.773437" stop-color="rgb(56.370544%, 69.351196%, 85.929871%)" stop-opacity="1"/>
<stop offset="0.78125" stop-color="rgb(55.982971%, 69.084167%, 85.8078%)" stop-opacity="1"/>
<stop offset="0.789062" stop-color="rgb(55.595398%, 68.815613%, 85.684204%)" stop-opacity="1"/>
<stop offset="0.796875" stop-color="rgb(55.207825%, 68.548584%, 85.562134%)" stop-opacity="1"/>
<stop offset="0.804688" stop-color="rgb(54.820251%, 68.281555%, 85.438538%)" stop-opacity="1"/>
<stop offset="0.8125" stop-color="rgb(54.434204%, 68.014526%, 85.316467%)" stop-opacity="1"/>
<stop offset="0.820312" stop-color="rgb(54.046631%, 67.745972%, 85.192871%)" stop-opacity="1"/>
<stop offset="0.828125" stop-color="rgb(53.659058%, 67.478943%, 85.069275%)" stop-opacity="1"/>
<stop offset="0.835938" stop-color="rgb(53.271484%, 67.211914%, 84.947205%)" stop-opacity="1"/>
<stop offset="0.84375" stop-color="rgb(52.885437%, 66.944885%, 84.823608%)" stop-opacity="1"/>
<stop offset="0.851562" stop-color="rgb(52.497864%, 66.677856%, 84.701538%)" stop-opacity="1"/>
<stop offset="0.859375" stop-color="rgb(52.110291%, 66.409302%, 84.577942%)" stop-opacity="1"/>
<stop offset="0.867188" stop-color="rgb(51.722717%, 66.142273%, 84.455872%)" stop-opacity="1"/>
<stop offset="0.875" stop-color="rgb(51.33667%, 65.875244%, 84.332275%)" stop-opacity="1"/>
<stop offset="0.882812" stop-color="rgb(50.949097%, 65.608215%, 84.210205%)" stop-opacity="1"/>
<stop offset="0.890625" stop-color="rgb(50.561523%, 65.341187%, 84.086609%)" stop-opacity="1"/>
<stop offset="0.898438" stop-color="rgb(50.17395%, 65.072632%, 83.963013%)" stop-opacity="1"/>
<stop offset="0.90625" stop-color="rgb(49.787903%, 64.805603%, 83.840942%)" stop-opacity="1"/>
<stop offset="0.914062" stop-color="rgb(49.40033%, 64.538574%, 83.717346%)" stop-opacity="1"/>
<stop offset="0.921875" stop-color="rgb(49.012756%, 64.271545%, 83.595276%)" stop-opacity="1"/>
<stop offset="0.929688" stop-color="rgb(48.625183%, 64.004517%, 83.47168%)" stop-opacity="1"/>
<stop offset="0.9375" stop-color="rgb(48.239136%, 63.735962%, 83.349609%)" stop-opacity="1"/>
<stop offset="0.945312" stop-color="rgb(47.851562%, 63.468933%, 83.226013%)" stop-opacity="1"/>
<stop offset="0.953125" stop-color="rgb(47.463989%, 63.201904%, 83.103943%)" stop-opacity="1"/>
<stop offset="0.960938" stop-color="rgb(47.076416%, 62.934875%, 82.980347%)" stop-opacity="1"/>
<stop offset="0.96875" stop-color="rgb(46.690369%, 62.666321%, 82.85675%)" stop-opacity="1"/>
<stop offset="0.976562" stop-color="rgb(46.302795%, 62.399292%, 82.73468%)" stop-opacity="1"/>
<stop offset="0.984375" stop-color="rgb(45.915222%, 62.132263%, 82.611084%)" stop-opacity="1"/>
<stop offset="0.992188" stop-color="rgb(45.527649%, 61.865234%, 82.489014%)" stop-opacity="1"/>
<stop offset="1" stop-color="rgb(45.21637%, 61.650085%, 82.389832%)" stop-opacity="1"/>
</linearGradient>
</defs>
<path fill-rule="evenodd" fill="rgb(20.776367%, 43.138123%, 77.34375%)" fill-opacity="1" d="M 1936.488281 0 C 3001.578125 0 3872.980469 871.421875 3872.980469 1936.488281 C 3872.980469 3001.578125 3001.578125 3872.980469 1936.488281 3872.980469 C 871.414062 3872.980469 0 3001.578125 0 1936.488281 C 0 871.421875 871.414062 0 1936.488281 0 "/>
<g clip-path="url(#clip-0)">
<g clip-path="url(#clip-1)">
<path fill-rule="nonzero" fill="url(#linear-pattern-0)" d="M 717.359375 697.140625 L 717.359375 3175.851562 L 3159.328125 3175.851562 L 3159.328125 697.140625 Z M 717.359375 697.140625 "/>
</g>
</g>
</svg>
