<?xml version="1.0" encoding="UTF-8"?>
<svg xmlns="http://www.w3.org/2000/svg" xmlns:xlink="http://www.w3.org/1999/xlink" width="3872.98" height="3872.98" viewBox="0 0 3872.98 3872.98">
<defs>
<clipPath id="clip-0">
<path clip-rule="nonzero" d="M 866 697 L 3007 697 L 3007 3176 L 866 3176 Z M 866 697 "/>
</clipPath>
<clipPath id="clip-1">
<path clip-rule="evenodd" d="M 2206.148438 2274.679688 L 2206.148438 2350.148438 C 2206.148438 2391.761719 2240.011719 2425.621094 2281.621094 2425.621094 L 2287.191406 2425.621094 C 2328.820312 2425.621094 2362.679688 2391.761719 2362.679688 2350.148438 L 2362.679688 2274.679688 Z M 1936.480469 1823.078125 C 1979.871094 1823.078125 2021.691406 1816.28125 2060.96875 1803.699219 C 2061.171875 1865.261719 2070.191406 1924.921875 2087.800781 1981.308594 L 1936.480469 2199.570312 L 1785.148438 1981.328125 C 1802.769531 1924.898438 1811.820312 1865.25 1812.019531 1803.710938 C 1851.269531 1816.289062 1893.101562 1823.078125 1936.480469 1823.078125 Z M 1969.46875 2670.300781 L 2327.640625 2670.300781 L 2327.640625 2544.949219 C 2327.640625 2526.730469 2342.390625 2511.960938 2360.609375 2511.960938 C 2378.808594 2511.960938 2393.589844 2526.730469 2393.589844 2544.949219 L 2393.589844 2670.300781 L 2558.738281 2670.300781 L 2558.738281 2344.910156 C 2558.738281 2165.511719 2412.769531 2019.558594 2233.398438 2019.558594 L 2141.558594 2019.558594 L 1969.46875 2267.789062 Z M 1731.441406 2019.558594 L 1903.5 2267.730469 L 1903.5 2670.28125 L 1545.339844 2670.28125 L 1545.339844 2253.351562 C 1545.339844 2235.148438 1530.570312 2220.371094 1512.351562 2220.371094 C 1494.140625 2220.371094 1479.378906 2235.148438 1479.378906 2253.351562 L 1479.378906 2670.28125 L 1314.261719 2670.28125 L 1314.261719 2344.910156 C 1314.261719 2165.511719 1460.199219 2019.558594 1639.621094 2019.558594 Z M 2345.578125 1384.28125 L 2345.578125 1238.949219 L 2375.71875 1238.949219 C 2392.351562 1238.949219 2405.859375 1252.46875 2405.859375 1269.078125 L 2405.859375 1354.160156 C 2405.859375 1367.410156 2397.25 1378.671875 2385.351562 1382.699219 L 2384.328125 1383.03125 C 2381.589844 1383.851562 2378.710938 1384.28125 2375.71875 1384.28125 Z M 2356.589844 1450.238281 C 2353.398438 1459.371094 2348.398438 1469.300781 2340.5 1478.550781 C 2341.980469 1469.210938 2343.160156 1459.78125 2343.988281 1450.238281 Z M 1527.371094 1238.929688 L 1527.371094 1384.238281 L 1496.871094 1384.238281 C 1480.050781 1384.238281 1466.351562 1370.558594 1466.351562 1353.738281 L 1466.351562 1269.441406 C 1466.351562 1256.800781 1474.089844 1245.921875 1485.070312 1241.300781 C 1485.851562 1241.050781 1486.628906 1240.75 1487.371094 1240.449219 C 1490.371094 1239.460938 1493.558594 1238.929688 1496.871094 1238.929688 Z M 1505.628906 1172.96875 C 1502.21875 1025.851562 1564.160156 906 1682.289062 833.070312 C 1831.660156 740.859375 2048.5 740.878906 2197.839844 833.070312 C 2315.949219 906.019531 2377.890625 1025.871094 2374.480469 1172.988281 L 2343.96875 1172.988281 C 2325.570312 964.328125 2149.851562 800.109375 1936.480469 800.109375 C 1723.128906 800.109375 1547.410156 964.320312 1529 1172.96875 Z M 2190.960938 3046.179688 L 1682.019531 3046.179688 C 1663.808594 3046.179688 1649.039062 3031.421875 1649.039062 3013.199219 C 1649.039062 2994.980469 1663.808594 2980.21875 1682.019531 2980.21875 L 2190.960938 2980.21875 C 2209.191406 2980.21875 2223.941406 2994.980469 2223.941406 3013.199219 C 2223.941406 3031.421875 2209.191406 3046.179688 2190.960938 3046.179688 Z M 1634.171875 1576.210938 C 1608.128906 1527.878906 1593.328125 1472.628906 1593.328125 1413.988281 L 1593.328125 1209.230469 C 1593.328125 1020.019531 1747.269531 866.089844 1936.480469 866.089844 C 2125.699219 866.089844 2279.628906 1020.019531 2279.628906 1209.21875 L 2279.628906 1413.988281 C 2279.628906 1448.941406 2274.351562 1482.679688 2264.601562 1514.46875 C 2209.480469 1522.5 2118.101562 1514.050781 1968.070312 1456.640625 C 1951.128906 1450.140625 1932.011719 1458.628906 1925.488281 1475.640625 C 1918.96875 1492.640625 1927.488281 1511.710938 1944.488281 1518.230469 C 2057.539062 1561.480469 2151.941406 1583.128906 2227.011719 1583.128906 C 2229.710938 1583.128906 2232.371094 1583.101562 2235.011719 1583.050781 C 2200.578125 1643.601562 2148.28125 1692.71875 2085.300781 1723.140625 C 2082.929688 1723.941406 2080.671875 1725 2078.578125 1726.300781 C 2035.261719 1746.089844 1987.140625 1757.121094 1936.480469 1757.121094 L 1936.480469 1757.140625 C 1885.800781 1757.140625 1837.640625 1746.078125 1794.289062 1726.261719 C 1792.210938 1724.988281 1789.980469 1723.929688 1787.640625 1723.140625 C 1724.410156 1692.578125 1671.921875 1643.160156 1637.511719 1582.25 C 1636.601562 1580.121094 1635.480469 1578.089844 1634.171875 1576.210938 Z M 932.816406 3109.839844 L 932.816406 2898.390625 C 932.816406 2893.730469 936.757812 2889.75 941.445312 2889.75 L 2931.511719 2889.75 C 2936.21875 2889.75 2940.179688 2893.730469 2940.179688 2898.390625 L 2940.179688 3109.839844 Z M 1029.621094 2823.789062 L 2843.378906 2823.789062 L 2843.378906 1678.308594 C 2843.378906 1650.589844 2820.839844 1628.03125 2793.078125 1628.03125 L 2284.96875 1628.03125 C 2246.671875 1690.171875 2192.21875 1741.328125 2127.511719 1775.648438 C 2127.121094 1784.191406 2126.921875 1792.839844 2126.921875 1801.511719 C 2126.921875 1854.210938 2134.128906 1905.269531 2148.328125 1953.589844 L 2233.398438 1953.589844 C 2449.160156 1953.589844 2624.71875 2129.128906 2624.71875 2344.910156 L 2624.71875 2703.28125 C 2624.699219 2721.519531 2609.921875 2736.25 2591.699219 2736.25 L 1281.25 2736.25 C 1263.039062 2736.25 1248.28125 2721.5 1248.28125 2703.28125 L 1248.28125 2344.910156 C 1248.28125 2129.148438 1423.820312 1953.609375 1639.621094 1953.609375 L 1724.628906 1953.589844 C 1738.851562 1905.25 1746.039062 1854.199219 1746.039062 1801.511719 C 1746.039062 1792.929688 1745.828125 1784.28125 1745.441406 1775.648438 C 1680.738281 1741.328125 1626.289062 1690.171875 1587.980469 1628.03125 L 1079.890625 1628.03125 C 1052.171875 1628.03125 1029.621094 1650.589844 1029.621094 1678.308594 Z M 2973.148438 3175.800781 C 2991.351562 3175.800781 3006.109375 3161.019531 3006.128906 3142.820312 L 3006.128906 2898.390625 C 3006.128906 2857.238281 2972.660156 2823.789062 2931.511719 2823.789062 L 2909.328125 2823.789062 L 2909.328125 1678.308594 C 2909.328125 1614.210938 2857.179688 1562.070312 2793.078125 1562.070312 L 2336.320312 1562.070312 C 2347.199219 1557 2357.21875 1551.011719 2366.398438 1544.121094 C 2411.710938 1510.078125 2423.921875 1463.339844 2427 1435.390625 C 2453.910156 1418.339844 2471.808594 1388.308594 2471.808594 1354.160156 L 2471.808594 1269.078125 C 2471.808594 1240.539062 2459.300781 1214.859375 2439.46875 1197.25 C 2450.910156 1015.5 2377.789062 866.660156 2232.46875 776.941406 C 2060.320312 670.628906 1819.808594 670.628906 1647.628906 776.941406 C 1503.871094 865.691406 1430.78125 1012.269531 1440.308594 1191.351562 C 1416.140625 1208.898438 1400.398438 1237.371094 1400.398438 1269.449219 L 1400.398438 1353.761719 C 1400.398438 1406.949219 1443.679688 1450.238281 1496.871094 1450.238281 L 1528.960938 1450.238281 C 1532.410156 1489.339844 1541.390625 1526.878906 1555.109375 1562.070312 L 1079.878906 1562.070312 C 1015.78125 1562.070312 963.636719 1614.210938 963.636719 1678.308594 L 963.636719 2823.789062 L 941.476562 2823.789062 C 900.324219 2823.789062 866.855469 2857.238281 866.855469 2898.390625 L 866.855469 3142.800781 C 866.855469 3161.019531 881.621094 3175.800781 899.832031 3175.800781 Z M 2287.191406 2491.570312 L 2281.621094 2491.570312 C 2203.628906 2491.570312 2140.199219 2428.140625 2140.199219 2350.148438 L 2140.199219 2241.710938 C 2140.199219 2223.488281 2154.949219 2208.730469 2173.179688 2208.730469 L 2395.660156 2208.730469 C 2413.878906 2208.730469 2428.648438 2223.511719 2428.648438 2241.710938 L 2428.648438 2350.171875 C 2428.628906 2428.121094 2365.199219 2491.570312 2287.191406 2491.570312 "/>
</clipPath>
<linearGradient id="linear-pattern-0" gradientUnits="userSpaceOnUse" x1="0" y1="0" x2="1.000002" y2="0" gradientTransform="matrix(2139.27, 0, 0, 2139.27, 866.855, 1936.5)">
<stop offset="0" stop-color="rgb(94.508362%, 95.684814%, 98.03772%)" stop-opacity="1"/>
<stop offset="0.0078125" stop-color="rgb(94.314575%, 95.552063%, 97.976685%)" stop-opacity="1"/>
<stop offset="0.015625" stop-color="rgb(93.928528%, 95.285034%, 97.854614%)" stop-opacity="1"/>
<stop offset="0.0234375" stop-color="rgb(93.54248%, 95.018005%, 97.732544%)" stop-opacity="1"/>
<stop offset="0.03125" stop-color="rgb(93.156433%, 94.752502%, 97.608948%)" stop-opacity="1"/>
<stop offset="0.0390625" stop-color="rgb(92.770386%, 94.485474%, 97.486877%)" stop-opacity="1"/>
<stop offset="0.046875" stop-color="rgb(92.385864%, 94.218445%, 97.364807%)" stop-opacity="1"/>
<stop offset="0.0546875" stop-color="rgb(91.999817%, 93.952942%, 97.241211%)" stop-opacity="1"/>
<stop offset="0.0625" stop-color="rgb(91.61377%, 93.685913%, 97.119141%)" stop-opacity="1"/>
<stop offset="0.0703125" stop-color="rgb(91.227722%, 93.418884%, 96.99707%)" stop-opacity="1"/>
<stop offset="0.078125" stop-color="rgb(90.841675%, 93.153381%, 96.873474%)" stop-opacity="1"/>
<stop offset="0.0859375" stop-color="rgb(90.455627%, 92.886353%, 96.751404%)" stop-opacity="1"/>
<stop offset="0.09375" stop-color="rgb(90.06958%, 92.619324%, 96.629333%)" stop-opacity="1"/>
<stop offset="0.101562" stop-color="rgb(89.683533%, 92.353821%, 96.505737%)" stop-opacity="1"/>
<stop offset="0.109375" stop-color="rgb(89.297485%, 92.086792%, 96.383667%)" stop-opacity="1"/>
<stop offset="0.117188" stop-color="rgb(88.911438%, 91.819763%, 96.261597%)" stop-opacity="1"/>
<stop offset="0.125" stop-color="rgb(88.525391%, 91.55426%, 96.138%)" stop-opacity="1"/>
<stop offset="0.132812" stop-color="rgb(88.139343%, 91.287231%, 96.01593%)" stop-opacity="1"/>
<stop offset="0.140625" stop-color="rgb(87.753296%, 91.020203%, 95.89386%)" stop-opacity="1"/>
<stop offset="0.148438" stop-color="rgb(87.367249%, 90.753174%, 95.77179%)" stop-opacity="1"/>
<stop offset="0.15625" stop-color="rgb(86.981201%, 90.487671%, 95.648193%)" stop-opacity="1"/>
<stop offset="0.164062" stop-color="rgb(86.595154%, 90.220642%, 95.526123%)" stop-opacity="1"/>
<stop offset="0.171875" stop-color="rgb(86.209106%, 89.953613%, 95.404053%)" stop-opacity="1"/>
<stop offset="0.179688" stop-color="rgb(85.823059%, 89.68811%, 95.280457%)" stop-opacity="1"/>
<stop offset="0.1875" stop-color="rgb(85.437012%, 89.421082%, 95.158386%)" stop-opacity="1"/>
<stop offset="0.195312" stop-color="rgb(85.050964%, 89.154053%, 95.036316%)" stop-opacity="1"/>
<stop offset="0.203125" stop-color="rgb(84.664917%, 88.88855%, 94.91272%)" stop-opacity="1"/>
<stop offset="0.210938" stop-color="rgb(84.27887%, 88.621521%, 94.790649%)" stop-opacity="1"/>
<stop offset="0.21875" stop-color="rgb(83.892822%, 88.354492%, 94.668579%)" stop-opacity="1"/>
<stop offset="0.226562" stop-color="rgb(83.506775%, 88.088989%, 94.544983%)" stop-opacity="1"/>
<stop offset="0.234375" stop-color="rgb(83.120728%, 87.82196%, 94.422913%)" stop-opacity="1"/>
<stop offset="0.242188" stop-color="rgb(82.73468%, 87.554932%, 94.300842%)" stop-opacity="1"/>
<stop offset="0.25" stop-color="rgb(82.348633%, 87.289429%, 94.177246%)" stop-opacity="1"/>
<stop offset="0.257812" stop-color="rgb(81.962585%, 87.0224%, 94.055176%)" stop-opacity="1"/>
<stop offset="0.265625" stop-color="rgb(81.576538%, 86.755371%, 93.933105%)" stop-opacity="1"/>
<stop offset="0.273438" stop-color="rgb(81.190491%, 86.489868%, 93.809509%)" stop-opacity="1"/>
<stop offset="0.28125" stop-color="rgb(80.804443%, 86.222839%, 93.687439%)" stop-opacity="1"/>
<stop offset="0.289062" stop-color="rgb(80.418396%, 85.955811%, 93.565369%)" stop-opacity="1"/>
<stop offset="0.296875" stop-color="rgb(80.032349%, 85.690308%, 93.443298%)" stop-opacity="1"/>
<stop offset="0.304688" stop-color="rgb(79.646301%, 85.423279%, 93.319702%)" stop-opacity="1"/>
<stop offset="0.3125" stop-color="rgb(79.260254%, 85.15625%, 93.197632%)" stop-opacity="1"/>
<stop offset="0.320312" stop-color="rgb(78.874207%, 84.889221%, 93.075562%)" stop-opacity="1"/>
<stop offset="0.328125" stop-color="rgb(78.488159%, 84.623718%, 92.951965%)" stop-opacity="1"/>
<stop offset="0.335938" stop-color="rgb(78.102112%, 84.356689%, 92.829895%)" stop-opacity="1"/>
<stop offset="0.34375" stop-color="rgb(77.716064%, 84.089661%, 92.707825%)" stop-opacity="1"/>
<stop offset="0.351562" stop-color="rgb(77.330017%, 83.824158%, 92.584229%)" stop-opacity="1"/>
<stop offset="0.359375" stop-color="rgb(76.94397%, 83.557129%, 92.462158%)" stop-opacity="1"/>
<stop offset="0.367188" stop-color="rgb(76.557922%, 83.2901%, 92.340088%)" stop-opacity="1"/>
<stop offset="0.375" stop-color="rgb(76.171875%, 83.024597%, 92.216492%)" stop-opacity="1"/>
<stop offset="0.382812" stop-color="rgb(75.785828%, 82.757568%, 92.094421%)" stop-opacity="1"/>
<stop offset="0.390625" stop-color="rgb(75.39978%, 82.49054%, 91.972351%)" stop-opacity="1"/>
<stop offset="0.398438" stop-color="rgb(75.013733%, 82.225037%, 91.848755%)" stop-opacity="1"/>
<stop offset="0.40625" stop-color="rgb(74.627686%, 81.958008%, 91.726685%)" stop-opacity="1"/>
<stop offset="0.414062" stop-color="rgb(74.241638%, 81.690979%, 91.604614%)" stop-opacity="1"/>
<stop offset="0.421875" stop-color="rgb(73.855591%, 81.425476%, 91.482544%)" stop-opacity="1"/>
<stop offset="0.429688" stop-color="rgb(73.469543%, 81.158447%, 91.358948%)" stop-opacity="1"/>
<stop offset="0.4375" stop-color="rgb(73.083496%, 80.891418%, 91.236877%)" stop-opacity="1"/>
<stop offset="0.445312" stop-color="rgb(72.697449%, 80.625916%, 91.114807%)" stop-opacity="1"/>
<stop offset="0.453125" stop-color="rgb(72.311401%, 80.358887%, 90.991211%)" stop-opacity="1"/>
<stop offset="0.460938" stop-color="rgb(71.925354%, 80.091858%, 90.869141%)" stop-opacity="1"/>
<stop offset="0.46875" stop-color="rgb(71.539307%, 79.824829%, 90.74707%)" stop-opacity="1"/>
<stop offset="0.476562" stop-color="rgb(71.153259%, 79.559326%, 90.623474%)" stop-opacity="1"/>
<stop offset="0.484375" stop-color="rgb(70.767212%, 79.292297%, 90.501404%)" stop-opacity="1"/>
<stop offset="0.492188" stop-color="rgb(70.381165%, 79.025269%, 90.379333%)" stop-opacity="1"/>
<stop offset="0.5" stop-color="rgb(69.995117%, 78.759766%, 90.255737%)" stop-opacity="1"/>
<stop offset="0.507812" stop-color="rgb(69.60907%, 78.492737%, 90.133667%)" stop-opacity="1"/>
<stop offset="0.515625" stop-color="rgb(69.223022%, 78.225708%, 90.011597%)" stop-opacity="1"/>
<stop offset="0.523437" stop-color="rgb(68.836975%, 77.960205%, 89.888%)" stop-opacity="1"/>
<stop offset="0.53125" stop-color="rgb(68.450928%, 77.693176%, 89.76593%)" stop-opacity="1"/>
<stop offset="0.539062" stop-color="rgb(68.06488%, 77.426147%, 89.64386%)" stop-opacity="1"/>
<stop offset="0.546875" stop-color="rgb(67.678833%, 77.160645%, 89.520264%)" stop-opacity="1"/>
<stop offset="0.554688" stop-color="rgb(67.292786%, 76.893616%, 89.398193%)" stop-opacity="1"/>
<stop offset="0.5625" stop-color="rgb(66.906738%, 76.626587%, 89.276123%)" stop-opacity="1"/>
<stop offset="0.570312" stop-color="rgb(66.520691%, 76.361084%, 89.154053%)" stop-opacity="1"/>
<stop offset="0.578125" stop-color="rgb(66.134644%, 76.094055%, 89.030457%)" stop-opacity="1"/>
<stop offset="0.585938" stop-color="rgb(65.748596%, 75.827026%, 88.908386%)" stop-opacity="1"/>
<stop offset="0.59375" stop-color="rgb(65.362549%, 75.561523%, 88.786316%)" stop-opacity="1"/>
<stop offset="0.601563" stop-color="rgb(64.976501%, 75.294495%, 88.66272%)" stop-opacity="1"/>
<stop offset="0.609375" stop-color="rgb(64.590454%, 75.027466%, 88.540649%)" stop-opacity="1"/>
<stop offset="0.617188" stop-color="rgb(64.204407%, 74.761963%, 88.418579%)" stop-opacity="1"/>
<stop offset="0.625" stop-color="rgb(63.818359%, 74.494934%, 88.294983%)" stop-opacity="1"/>
<stop offset="0.632812" stop-color="rgb(63.432312%, 74.227905%, 88.172913%)" stop-opacity="1"/>
<stop offset="0.640625" stop-color="rgb(63.046265%, 73.960876%, 88.050842%)" stop-opacity="1"/>
<stop offset="0.648437" stop-color="rgb(62.660217%, 73.695374%, 87.927246%)" stop-opacity="1"/>
<stop offset="0.65625" stop-color="rgb(62.27417%, 73.428345%, 87.805176%)" stop-opacity="1"/>
<stop offset="0.664062" stop-color="rgb(61.888123%, 73.161316%, 87.683105%)" stop-opacity="1"/>
<stop offset="0.671875" stop-color="rgb(61.502075%, 72.895813%, 87.559509%)" stop-opacity="1"/>
<stop offset="0.679688" stop-color="rgb(61.116028%, 72.628784%, 87.437439%)" stop-opacity="1"/>
<stop offset="0.6875" stop-color="rgb(60.72998%, 72.361755%, 87.315369%)" stop-opacity="1"/>
<stop offset="0.695312" stop-color="rgb(60.343933%, 72.096252%, 87.193298%)" stop-opacity="1"/>
<stop offset="0.703125" stop-color="rgb(59.957886%, 71.829224%, 87.069702%)" stop-opacity="1"/>
<stop offset="0.710938" stop-color="rgb(59.571838%, 71.562195%, 86.947632%)" stop-opacity="1"/>
<stop offset="0.71875" stop-color="rgb(59.185791%, 71.296692%, 86.825562%)" stop-opacity="1"/>
<stop offset="0.726563" stop-color="rgb(58.799744%, 71.029663%, 86.701965%)" stop-opacity="1"/>
<stop offset="0.734375" stop-color="rgb(58.413696%, 70.762634%, 86.579895%)" stop-opacity="1"/>
<stop offset="0.742188" stop-color="rgb(58.027649%, 70.497131%, 86.457825%)" stop-opacity="1"/>
<stop offset="0.75" stop-color="rgb(57.641602%, 70.230103%, 86.334229%)" stop-opacity="1"/>
<stop offset="0.757812" stop-color="rgb(57.25708%, 69.963074%, 86.212158%)" stop-opacity="1"/>
<stop offset="0.765625" stop-color="rgb(56.871033%, 69.697571%, 86.090088%)" stop-opacity="1"/>
<stop offset="0.773437" stop-color="rgb(56.484985%, 69.430542%, 85.966492%)" stop-opacity="1"/>
<stop offset="0.78125" stop-color="rgb(56.098938%, 69.163513%, 85.844421%)" stop-opacity="1"/>
<stop offset="0.789062" stop-color="rgb(55.712891%, 68.896484%, 85.722351%)" stop-opacity="1"/>
<stop offset="0.796875" stop-color="rgb(55.326843%, 68.630981%, 85.598755%)" stop-opacity="1"/>
<stop offset="0.804688" stop-color="rgb(54.940796%, 68.363953%, 85.476685%)" stop-opacity="1"/>
<stop offset="0.8125" stop-color="rgb(54.554749%, 68.096924%, 85.354614%)" stop-opacity="1"/>
<stop offset="0.820312" stop-color="rgb(54.168701%, 67.831421%, 85.231018%)" stop-opacity="1"/>
<stop offset="0.828125" stop-color="rgb(53.782654%, 67.564392%, 85.108948%)" stop-opacity="1"/>
<stop offset="0.835938" stop-color="rgb(53.396606%, 67.297363%, 84.986877%)" stop-opacity="1"/>
<stop offset="0.84375" stop-color="rgb(53.010559%, 67.03186%, 84.864807%)" stop-opacity="1"/>
<stop offset="0.851563" stop-color="rgb(52.624512%, 66.764832%, 84.741211%)" stop-opacity="1"/>
<stop offset="0.859375" stop-color="rgb(52.238464%, 66.497803%, 84.619141%)" stop-opacity="1"/>
<stop offset="0.867188" stop-color="rgb(51.852417%, 66.2323%, 84.49707%)" stop-opacity="1"/>
<stop offset="0.875" stop-color="rgb(51.46637%, 65.965271%, 84.373474%)" stop-opacity="1"/>
<stop offset="0.882812" stop-color="rgb(51.080322%, 65.698242%, 84.251404%)" stop-opacity="1"/>
<stop offset="0.890625" stop-color="rgb(50.694275%, 65.432739%, 84.129333%)" stop-opacity="1"/>
<stop offset="0.898437" stop-color="rgb(50.308228%, 65.16571%, 84.005737%)" stop-opacity="1"/>
<stop offset="0.90625" stop-color="rgb(49.92218%, 64.898682%, 83.883667%)" stop-opacity="1"/>
<stop offset="0.914062" stop-color="rgb(49.536133%, 64.633179%, 83.761597%)" stop-opacity="1"/>
<stop offset="0.921875" stop-color="rgb(49.150085%, 64.36615%, 83.638%)" stop-opacity="1"/>
<stop offset="0.929688" stop-color="rgb(48.764038%, 64.099121%, 83.51593%)" stop-opacity="1"/>
<stop offset="0.9375" stop-color="rgb(48.377991%, 63.833618%, 83.39386%)" stop-opacity="1"/>
<stop offset="0.945312" stop-color="rgb(47.991943%, 63.566589%, 83.270264%)" stop-opacity="1"/>
<stop offset="0.953125" stop-color="rgb(47.605896%, 63.299561%, 83.148193%)" stop-opacity="1"/>
<stop offset="0.960938" stop-color="rgb(47.219849%, 63.032532%, 83.026123%)" stop-opacity="1"/>
<stop offset="0.96875" stop-color="rgb(46.833801%, 62.767029%, 82.904053%)" stop-opacity="1"/>
<stop offset="0.976563" stop-color="rgb(46.447754%, 62.5%, 82.780457%)" stop-opacity="1"/>
<stop offset="0.984375" stop-color="rgb(46.061707%, 62.232971%, 82.658386%)" stop-opacity="1"/>
<stop offset="0.992188" stop-color="rgb(45.675659%, 61.967468%, 82.536316%)" stop-opacity="1"/>
<stop offset="1" stop-color="rgb(45.289612%, 61.700439%, 82.41272%)" stop-opacity="1"/>
</linearGradient>
</defs>
<path fill-rule="evenodd" fill="rgb(20.776367%, 43.138123%, 77.34375%)" fill-opacity="1" d="M 1936.488281 0 C 3001.578125 0 3872.980469 871.421875 3872.980469 1936.488281 C 3872.980469 3001.578125 3001.578125 3872.980469 1936.488281 3872.980469 C 871.414062 3872.980469 0 3001.578125 0 1936.488281 C 0 871.421875 871.414062 0 1936.488281 0 "/>
<g clip-path="url(#clip-0)">
<g clip-path="url(#clip-1)">
<path fill-rule="nonzero" fill="url(#linear-pattern-0)" d="M 866.855469 670.628906 L 866.855469 3175.800781 L 3006.128906 3175.800781 L 3006.128906 670.628906 Z M 866.855469 670.628906 "/>
</g>
</g>
</svg>
