<?xml version="1.0" encoding="UTF-8"?>
<svg xmlns="http://www.w3.org/2000/svg" xmlns:xlink="http://www.w3.org/1999/xlink" width="3872.98" height="3872.98" viewBox="0 0 3872.98 3872.98">
<defs>
<clipPath id="clip-0">
<path clip-rule="nonzero" d="M 1150 697 L 2723 697 L 2723 3176 L 1150 3176 Z M 1150 697 "/>
</clipPath>
<clipPath id="clip-1">
<path clip-rule="evenodd" d="M 2107.949219 2986.070312 L 1765.058594 2986.070312 C 1780.558594 3139.039062 2092.429688 3139.039062 2107.949219 2986.070312 Z M 1713.710938 2910.980469 C 1729.039062 2905.25 2097.511719 2908.621094 2146.128906 2908.621094 C 2150.78125 2908.621094 2155.210938 2909.46875 2159.289062 2910.980469 L 2226.011719 2910.980469 C 2235.539062 2910.980469 2243.640625 2902.910156 2243.640625 2893.351562 L 2243.640625 2796.429688 L 1629.371094 2796.429688 L 1629.371094 2796.410156 C 1629.371094 2929.71875 1611.980469 2910.980469 1713.710938 2910.980469 Z M 2243.601562 2609.109375 L 1629.351562 2609.109375 L 1629.351562 2721.28125 L 2243.601562 2721.28125 Z M 1625.339844 2533.960938 L 2247.640625 2533.960938 C 2330.828125 1850.351562 2647.671875 1947.679688 2647.671875 1483.421875 C 2647.671875 1091.300781 2328.621094 772.28125 1936.511719 772.28125 C 1544.398438 772.28125 1225.351562 1091.300781 1225.351562 1483.421875 C 1225.351562 1947.679688 1542.148438 1850.308594 1625.339844 2533.960938 Z M 1739.398438 1353.929688 C 1749.019531 1353.929688 1758.628906 1350.25 1765.96875 1342.910156 L 1883.628906 1225.25 C 1997.03125 1338.660156 1962.078125 1339.109375 2113.738281 1187.429688 C 2148.710938 1152.449219 2095.621094 1099.351562 2060.648438 1134.300781 L 1979.769531 1215.179688 L 1910.179688 1145.589844 C 1895.519531 1130.929688 1871.71875 1130.929688 1857.058594 1145.589844 L 1712.839844 1289.800781 C 1689.128906 1313.511719 1706.21875 1353.929688 1739.398438 1353.929688 Z M 2172.03125 1642.351562 C 2216.378906 1642.351562 2231.980469 1567.230469 2161.488281 1567.230469 L 2161.488281 1258.960938 C 2161.488281 1209.519531 2086.378906 1209.519531 2086.378906 1258.960938 L 2086.378906 1567.230469 L 2041.328125 1567.230469 L 2041.328125 1381.921875 C 2041.328125 1332.46875 1966.21875 1332.46875 1966.21875 1381.921875 L 1966.21875 1567.230469 L 1921.171875 1567.230469 L 1921.171875 1340.410156 C 1921.171875 1290.960938 1846.050781 1290.960938 1846.050781 1340.410156 L 1846.050781 1567.230469 L 1801.011719 1567.230469 L 1801.011719 1480.429688 C 1801.011719 1430.980469 1725.898438 1430.980469 1725.898438 1480.429688 L 1725.898438 1567.230469 L 1700.941406 1567.230469 C 1651.5 1567.230469 1651.5 1642.351562 1700.941406 1642.351562 Z M 1850.351562 1967.75 L 2022.660156 1967.75 L 2036.308594 1844.128906 C 2041.410156 1798.019531 2097.609375 1821.378906 2195.121094 1735.46875 C 2206.109375 1725.78125 2221.671875 1723.410156 2235.050781 1729.269531 L 2349.011719 1779.320312 L 2435.148438 1630.121094 C 2275.351562 1512.761719 2327.949219 1568.660156 2327.949219 1441.691406 C 2327.949219 1314.761719 2275.390625 1370.628906 2435.148438 1253.238281 L 2349.011719 1104.039062 L 2235.050781 1154.078125 C 2192.480469 1172.761719 2184.289062 1112.019531 2061.640625 1070.660156 C 2047.789062 1065.988281 2037.921875 1053.730469 2036.308594 1039.210938 L 2022.660156 915.601562 L 1850.351562 915.621094 L 1836.71875 1039.210938 C 1831.621094 1085.351562 1775.300781 1062.039062 1677.878906 1147.890625 C 1666.929688 1157.550781 1651.359375 1159.980469 1637.960938 1154.121094 L 1523.960938 1104 L 1437.808594 1253.199219 C 1597.539062 1370.539062 1545.039062 1314.699219 1545.039062 1441.648438 C 1545.039062 1568.578125 1597.53125 1512.789062 1437.808594 1630.078125 L 1523.960938 1779.289062 L 1637.929688 1729.230469 C 1680.53125 1710.558594 1688.75 1771.289062 1811.351562 1812.660156 C 1825.199219 1817.328125 1835.078125 1829.601562 1836.691406 1844.128906 Z M 2056.28125 2042.871094 C 2075.429688 2042.871094 2091.5 2028.449219 2093.589844 2009.441406 L 2108.398438 1875.511719 C 2150.839844 1858.710938 2190.289062 1835.898438 2226.191406 1807.398438 L 2349.660156 1861.601562 C 2367.109375 1869.269531 2387.699219 1862.601562 2397.289062 1845.988281 L 2517.078125 1638.511719 C 2526.648438 1621.960938 2522.21875 1600.828125 2506.78125 1589.480469 L 2398.140625 1509.691406 C 2404.71875 1464.609375 2404.738281 1418.710938 2398.140625 1373.640625 L 2506.78125 1293.828125 C 2522.21875 1282.5 2526.628906 1261.390625 2517.078125 1244.789062 L 2397.289062 1037.320312 C 2387.699219 1020.730469 2367.191406 1014.050781 2349.660156 1021.710938 L 2226.191406 1075.910156 C 2190.269531 1047.421875 2150.839844 1024.601562 2108.398438 1007.808594 L 2093.589844 873.898438 C 2091.5 854.859375 2075.429688 840.46875 2056.28125 840.46875 L 1816.699219 840.480469 C 1797.550781 840.480469 1781.449219 854.878906 1779.351562 873.910156 L 1764.589844 1007.820312 C 1722.160156 1024.589844 1682.679688 1047.441406 1646.820312 1075.929688 L 1523.339844 1021.71875 C 1505.789062 1014 1485.28125 1020.761719 1475.710938 1037.328125 L 1355.921875 1244.800781 C 1346.339844 1261.378906 1350.78125 1282.488281 1366.21875 1293.839844 L 1474.851562 1373.648438 C 1468.289062 1418.558594 1468.28125 1464.800781 1474.851562 1509.679688 L 1366.21875 1589.480469 C 1350.78125 1600.808594 1346.339844 1621.941406 1355.921875 1638.519531 L 1475.710938 1846 C 1485.300781 1862.570312 1505.800781 1869.339844 1523.339844 1861.609375 L 1646.820312 1807.398438 C 1682.710938 1835.921875 1722.160156 1858.75 1764.589844 1875.53125 L 1779.351562 2009.441406 C 1781.46875 2028.46875 1797.550781 2042.871094 1816.699219 2042.871094 Z M 1936.488281 3175.839844 C 1817.5 3175.839844 1697.109375 3110.730469 1689.671875 2986.070312 L 1647.699219 2986.070312 C 1596.171875 2986.070312 1554.261719 2944.160156 1554.261719 2892.640625 L 1554.230469 2573.300781 C 1515.441406 2210.449219 1409.828125 2070.820312 1316.621094 1947.578125 C 1231.039062 1834.511719 1150.25 1727.671875 1150.25 1483.410156 C 1150.25 1049.859375 1502.96875 697.160156 1936.5 697.160156 C 2370.050781 697.160156 2722.761719 1049.878906 2722.761719 1483.410156 C 2722.761719 1727.679688 2641.929688 1834.511719 2556.378906 1947.578125 C 2463.128906 2070.859375 2357.460938 2210.519531 2318.710938 2573.679688 L 2318.730469 2893.328125 C 2318.730469 2944.46875 2277.128906 2986.070312 2226.011719 2986.070312 L 2183.320312 2986.070312 C 2175.890625 3110.75 2055.46875 3175.839844 1936.488281 3175.839844 "/>
</clipPath>
<linearGradient id="linear-pattern-0" gradientUnits="userSpaceOnUse" x1="0" y1="0" x2="1" y2="0" gradientTransform="matrix(1572.51, 0, 0, 1572.51, 1150.25, 1936.5)">
<stop offset="0" stop-color="rgb(91.371155%, 94.508362%, 98.03772%)" stop-opacity="1"/>
<stop offset="0.0078125" stop-color="rgb(91.178894%, 94.372559%, 97.973633%)" stop-opacity="1"/>
<stop offset="0.015625" stop-color="rgb(90.795898%, 94.099426%, 97.845459%)" stop-opacity="1"/>
<stop offset="0.0234375" stop-color="rgb(90.412903%, 93.826294%, 97.715759%)" stop-opacity="1"/>
<stop offset="0.03125" stop-color="rgb(90.029907%, 93.554688%, 97.587585%)" stop-opacity="1"/>
<stop offset="0.0390625" stop-color="rgb(89.646912%, 93.281555%, 97.459412%)" stop-opacity="1"/>
<stop offset="0.046875" stop-color="rgb(89.263916%, 93.008423%, 97.329712%)" stop-opacity="1"/>
<stop offset="0.0546875" stop-color="rgb(88.882446%, 92.736816%, 97.201538%)" stop-opacity="1"/>
<stop offset="0.0625" stop-color="rgb(88.499451%, 92.463684%, 97.073364%)" stop-opacity="1"/>
<stop offset="0.0703125" stop-color="rgb(88.116455%, 92.190552%, 96.94519%)" stop-opacity="1"/>
<stop offset="0.078125" stop-color="rgb(87.733459%, 91.917419%, 96.815491%)" stop-opacity="1"/>
<stop offset="0.0859375" stop-color="rgb(87.350464%, 91.645813%, 96.687317%)" stop-opacity="1"/>
<stop offset="0.09375" stop-color="rgb(86.967468%, 91.372681%, 96.559143%)" stop-opacity="1"/>
<stop offset="0.101562" stop-color="rgb(86.584473%, 91.099548%, 96.429443%)" stop-opacity="1"/>
<stop offset="0.109375" stop-color="rgb(86.201477%, 90.827942%, 96.30127%)" stop-opacity="1"/>
<stop offset="0.117188" stop-color="rgb(85.818481%, 90.55481%, 96.173096%)" stop-opacity="1"/>
<stop offset="0.125" stop-color="rgb(85.435486%, 90.281677%, 96.043396%)" stop-opacity="1"/>
<stop offset="0.132812" stop-color="rgb(85.05249%, 90.010071%, 95.915222%)" stop-opacity="1"/>
<stop offset="0.140625" stop-color="rgb(84.669495%, 89.736938%, 95.787048%)" stop-opacity="1"/>
<stop offset="0.148438" stop-color="rgb(84.286499%, 89.463806%, 95.657349%)" stop-opacity="1"/>
<stop offset="0.15625" stop-color="rgb(83.903503%, 89.190674%, 95.529175%)" stop-opacity="1"/>
<stop offset="0.164062" stop-color="rgb(83.520508%, 88.919067%, 95.401001%)" stop-opacity="1"/>
<stop offset="0.171875" stop-color="rgb(83.137512%, 88.645935%, 95.271301%)" stop-opacity="1"/>
<stop offset="0.179688" stop-color="rgb(82.754517%, 88.372803%, 95.143127%)" stop-opacity="1"/>
<stop offset="0.1875" stop-color="rgb(82.371521%, 88.101196%, 95.014954%)" stop-opacity="1"/>
<stop offset="0.195312" stop-color="rgb(81.988525%, 87.828064%, 94.885254%)" stop-opacity="1"/>
<stop offset="0.203125" stop-color="rgb(81.60553%, 87.554932%, 94.75708%)" stop-opacity="1"/>
<stop offset="0.210938" stop-color="rgb(81.222534%, 87.283325%, 94.628906%)" stop-opacity="1"/>
<stop offset="0.21875" stop-color="rgb(80.839539%, 87.010193%, 94.499207%)" stop-opacity="1"/>
<stop offset="0.226562" stop-color="rgb(80.456543%, 86.737061%, 94.371033%)" stop-opacity="1"/>
<stop offset="0.234375" stop-color="rgb(80.073547%, 86.463928%, 94.242859%)" stop-opacity="1"/>
<stop offset="0.242188" stop-color="rgb(79.690552%, 86.192322%, 94.113159%)" stop-opacity="1"/>
<stop offset="0.25" stop-color="rgb(79.307556%, 85.919189%, 93.984985%)" stop-opacity="1"/>
<stop offset="0.257812" stop-color="rgb(78.924561%, 85.646057%, 93.856812%)" stop-opacity="1"/>
<stop offset="0.265625" stop-color="rgb(78.541565%, 85.374451%, 93.727112%)" stop-opacity="1"/>
<stop offset="0.273438" stop-color="rgb(78.158569%, 85.101318%, 93.598938%)" stop-opacity="1"/>
<stop offset="0.28125" stop-color="rgb(77.775574%, 84.828186%, 93.470764%)" stop-opacity="1"/>
<stop offset="0.289062" stop-color="rgb(77.392578%, 84.55658%, 93.341064%)" stop-opacity="1"/>
<stop offset="0.296875" stop-color="rgb(77.009583%, 84.283447%, 93.212891%)" stop-opacity="1"/>
<stop offset="0.304688" stop-color="rgb(76.626587%, 84.010315%, 93.084717%)" stop-opacity="1"/>
<stop offset="0.3125" stop-color="rgb(76.243591%, 83.738708%, 92.955017%)" stop-opacity="1"/>
<stop offset="0.320312" stop-color="rgb(75.860596%, 83.465576%, 92.826843%)" stop-opacity="1"/>
<stop offset="0.328125" stop-color="rgb(75.4776%, 83.192444%, 92.698669%)" stop-opacity="1"/>
<stop offset="0.335938" stop-color="rgb(75.094604%, 82.919312%, 92.56897%)" stop-opacity="1"/>
<stop offset="0.34375" stop-color="rgb(74.711609%, 82.647705%, 92.440796%)" stop-opacity="1"/>
<stop offset="0.351562" stop-color="rgb(74.328613%, 82.374573%, 92.312622%)" stop-opacity="1"/>
<stop offset="0.359375" stop-color="rgb(73.945618%, 82.10144%, 92.182922%)" stop-opacity="1"/>
<stop offset="0.367188" stop-color="rgb(73.562622%, 81.829834%, 92.054749%)" stop-opacity="1"/>
<stop offset="0.375" stop-color="rgb(73.179626%, 81.556702%, 91.926575%)" stop-opacity="1"/>
<stop offset="0.382812" stop-color="rgb(72.796631%, 81.283569%, 91.796875%)" stop-opacity="1"/>
<stop offset="0.390625" stop-color="rgb(72.413635%, 81.011963%, 91.668701%)" stop-opacity="1"/>
<stop offset="0.398438" stop-color="rgb(72.03064%, 80.738831%, 91.540527%)" stop-opacity="1"/>
<stop offset="0.40625" stop-color="rgb(71.647644%, 80.465698%, 91.410828%)" stop-opacity="1"/>
<stop offset="0.414062" stop-color="rgb(71.264648%, 80.192566%, 91.282654%)" stop-opacity="1"/>
<stop offset="0.421875" stop-color="rgb(70.881653%, 79.920959%, 91.15448%)" stop-opacity="1"/>
<stop offset="0.429688" stop-color="rgb(70.498657%, 79.647827%, 91.02478%)" stop-opacity="1"/>
<stop offset="0.4375" stop-color="rgb(70.115662%, 79.374695%, 90.896606%)" stop-opacity="1"/>
<stop offset="0.445312" stop-color="rgb(69.734192%, 79.103088%, 90.768433%)" stop-opacity="1"/>
<stop offset="0.453125" stop-color="rgb(69.351196%, 78.829956%, 90.638733%)" stop-opacity="1"/>
<stop offset="0.460938" stop-color="rgb(68.968201%, 78.556824%, 90.510559%)" stop-opacity="1"/>
<stop offset="0.46875" stop-color="rgb(68.585205%, 78.285217%, 90.382385%)" stop-opacity="1"/>
<stop offset="0.476562" stop-color="rgb(68.202209%, 78.012085%, 90.252686%)" stop-opacity="1"/>
<stop offset="0.484375" stop-color="rgb(67.819214%, 77.738953%, 90.124512%)" stop-opacity="1"/>
<stop offset="0.492188" stop-color="rgb(67.436218%, 77.46582%, 89.996338%)" stop-opacity="1"/>
<stop offset="0.5" stop-color="rgb(67.053223%, 77.194214%, 89.866638%)" stop-opacity="1"/>
<stop offset="0.507812" stop-color="rgb(66.670227%, 76.921082%, 89.738464%)" stop-opacity="1"/>
<stop offset="0.515625" stop-color="rgb(66.287231%, 76.647949%, 89.610291%)" stop-opacity="1"/>
<stop offset="0.523438" stop-color="rgb(65.904236%, 76.376343%, 89.480591%)" stop-opacity="1"/>
<stop offset="0.53125" stop-color="rgb(65.52124%, 76.10321%, 89.352417%)" stop-opacity="1"/>
<stop offset="0.539062" stop-color="rgb(65.138245%, 75.830078%, 89.224243%)" stop-opacity="1"/>
<stop offset="0.546875" stop-color="rgb(64.755249%, 75.558472%, 89.094543%)" stop-opacity="1"/>
<stop offset="0.554688" stop-color="rgb(64.372253%, 75.285339%, 88.96637%)" stop-opacity="1"/>
<stop offset="0.5625" stop-color="rgb(63.989258%, 75.012207%, 88.838196%)" stop-opacity="1"/>
<stop offset="0.570312" stop-color="rgb(63.606262%, 74.739075%, 88.708496%)" stop-opacity="1"/>
<stop offset="0.578125" stop-color="rgb(63.223267%, 74.467468%, 88.580322%)" stop-opacity="1"/>
<stop offset="0.585938" stop-color="rgb(62.840271%, 74.194336%, 88.452148%)" stop-opacity="1"/>
<stop offset="0.59375" stop-color="rgb(62.457275%, 73.921204%, 88.322449%)" stop-opacity="1"/>
<stop offset="0.601562" stop-color="rgb(62.07428%, 73.649597%, 88.194275%)" stop-opacity="1"/>
<stop offset="0.609375" stop-color="rgb(61.691284%, 73.376465%, 88.066101%)" stop-opacity="1"/>
<stop offset="0.617188" stop-color="rgb(61.308289%, 73.103333%, 87.936401%)" stop-opacity="1"/>
<stop offset="0.625" stop-color="rgb(60.925293%, 72.831726%, 87.808228%)" stop-opacity="1"/>
<stop offset="0.632812" stop-color="rgb(60.542297%, 72.558594%, 87.680054%)" stop-opacity="1"/>
<stop offset="0.640625" stop-color="rgb(60.159302%, 72.285461%, 87.550354%)" stop-opacity="1"/>
<stop offset="0.648438" stop-color="rgb(59.776306%, 72.012329%, 87.42218%)" stop-opacity="1"/>
<stop offset="0.65625" stop-color="rgb(59.393311%, 71.740723%, 87.294006%)" stop-opacity="1"/>
<stop offset="0.664062" stop-color="rgb(59.010315%, 71.46759%, 87.164307%)" stop-opacity="1"/>
<stop offset="0.671875" stop-color="rgb(58.627319%, 71.194458%, 87.036133%)" stop-opacity="1"/>
<stop offset="0.679688" stop-color="rgb(58.244324%, 70.922852%, 86.907959%)" stop-opacity="1"/>
<stop offset="0.6875" stop-color="rgb(57.861328%, 70.649719%, 86.778259%)" stop-opacity="1"/>
<stop offset="0.695312" stop-color="rgb(57.478333%, 70.376587%, 86.650085%)" stop-opacity="1"/>
<stop offset="0.703125" stop-color="rgb(57.095337%, 70.10498%, 86.521912%)" stop-opacity="1"/>
<stop offset="0.710938" stop-color="rgb(56.712341%, 69.831848%, 86.392212%)" stop-opacity="1"/>
<stop offset="0.71875" stop-color="rgb(56.329346%, 69.558716%, 86.264038%)" stop-opacity="1"/>
<stop offset="0.726562" stop-color="rgb(55.94635%, 69.287109%, 86.135864%)" stop-opacity="1"/>
<stop offset="0.734375" stop-color="rgb(55.563354%, 69.013977%, 86.006165%)" stop-opacity="1"/>
<stop offset="0.742188" stop-color="rgb(55.180359%, 68.740845%, 85.877991%)" stop-opacity="1"/>
<stop offset="0.75" stop-color="rgb(54.797363%, 68.467712%, 85.749817%)" stop-opacity="1"/>
<stop offset="0.757812" stop-color="rgb(54.414368%, 68.196106%, 85.621643%)" stop-opacity="1"/>
<stop offset="0.765625" stop-color="rgb(54.031372%, 67.922974%, 85.491943%)" stop-opacity="1"/>
<stop offset="0.773438" stop-color="rgb(53.648376%, 67.649841%, 85.36377%)" stop-opacity="1"/>
<stop offset="0.78125" stop-color="rgb(53.265381%, 67.378235%, 85.235596%)" stop-opacity="1"/>
<stop offset="0.789062" stop-color="rgb(52.882385%, 67.105103%, 85.105896%)" stop-opacity="1"/>
<stop offset="0.796875" stop-color="rgb(52.49939%, 66.83197%, 84.977722%)" stop-opacity="1"/>
<stop offset="0.804688" stop-color="rgb(52.116394%, 66.560364%, 84.849548%)" stop-opacity="1"/>
<stop offset="0.8125" stop-color="rgb(51.733398%, 66.287231%, 84.719849%)" stop-opacity="1"/>
<stop offset="0.820312" stop-color="rgb(51.350403%, 66.014099%, 84.591675%)" stop-opacity="1"/>
<stop offset="0.828125" stop-color="rgb(50.967407%, 65.740967%, 84.463501%)" stop-opacity="1"/>
<stop offset="0.835938" stop-color="rgb(50.584412%, 65.46936%, 84.333801%)" stop-opacity="1"/>
<stop offset="0.84375" stop-color="rgb(50.202942%, 65.196228%, 84.205627%)" stop-opacity="1"/>
<stop offset="0.851562" stop-color="rgb(49.819946%, 64.923096%, 84.077454%)" stop-opacity="1"/>
<stop offset="0.859375" stop-color="rgb(49.436951%, 64.651489%, 83.947754%)" stop-opacity="1"/>
<stop offset="0.867188" stop-color="rgb(49.053955%, 64.378357%, 83.81958%)" stop-opacity="1"/>
<stop offset="0.875" stop-color="rgb(48.670959%, 64.105225%, 83.691406%)" stop-opacity="1"/>
<stop offset="0.882812" stop-color="rgb(48.287964%, 63.833618%, 83.561707%)" stop-opacity="1"/>
<stop offset="0.890625" stop-color="rgb(47.904968%, 63.560486%, 83.433533%)" stop-opacity="1"/>
<stop offset="0.898438" stop-color="rgb(47.521973%, 63.287354%, 83.305359%)" stop-opacity="1"/>
<stop offset="0.90625" stop-color="rgb(47.138977%, 63.014221%, 83.175659%)" stop-opacity="1"/>
<stop offset="0.914062" stop-color="rgb(46.755981%, 62.742615%, 83.047485%)" stop-opacity="1"/>
<stop offset="0.921875" stop-color="rgb(46.372986%, 62.469482%, 82.919312%)" stop-opacity="1"/>
<stop offset="0.929688" stop-color="rgb(45.98999%, 62.19635%, 82.789612%)" stop-opacity="1"/>
<stop offset="0.9375" stop-color="rgb(45.606995%, 61.924744%, 82.661438%)" stop-opacity="1"/>
<stop offset="0.945312" stop-color="rgb(45.223999%, 61.651611%, 82.533264%)" stop-opacity="1"/>
<stop offset="0.953125" stop-color="rgb(44.841003%, 61.378479%, 82.403564%)" stop-opacity="1"/>
<stop offset="0.960938" stop-color="rgb(44.458008%, 61.106873%, 82.275391%)" stop-opacity="1"/>
<stop offset="0.96875" stop-color="rgb(44.075012%, 60.83374%, 82.147217%)" stop-opacity="1"/>
<stop offset="0.976562" stop-color="rgb(43.692017%, 60.560608%, 82.017517%)" stop-opacity="1"/>
<stop offset="0.984375" stop-color="rgb(43.309021%, 60.287476%, 81.889343%)" stop-opacity="1"/>
<stop offset="0.992188" stop-color="rgb(42.926025%, 60.015869%, 81.761169%)" stop-opacity="1"/>
<stop offset="1" stop-color="rgb(42.54303%, 59.742737%, 81.63147%)" stop-opacity="1"/>
</linearGradient>
</defs>
<path fill-rule="evenodd" fill="rgb(20.776367%, 43.138123%, 77.34375%)" fill-opacity="1" d="M 1936.488281 0 C 3001.578125 0 3872.980469 871.421875 3872.980469 1936.488281 C 3872.980469 3001.578125 3001.578125 3872.980469 1936.488281 3872.980469 C 871.414062 3872.980469 0 3001.578125 0 1936.488281 C 0 871.421875 871.414062 0 1936.488281 0 "/>
<g clip-path="url(#clip-0)">
<g clip-path="url(#clip-1)">
<path fill-rule="nonzero" fill="url(#linear-pattern-0)" d="M 1150.25 697.160156 L 1150.25 3175.839844 L 2722.761719 3175.839844 L 2722.761719 697.160156 Z M 1150.25 697.160156 "/>
</g>
</g>
</svg>
